<svg width="16" height="16" viewBox="0 0 16 16" fill="none" xmlns="http://www.w3.org/2000/svg">
<path d="M14 3.5H2C1.72667 3.5 1.5 3.27333 1.5 3C1.5 2.72667 1.72667 2.5 2 2.5H14C14.2733 2.5 14.5 2.72667 14.5 3C14.5 3.27333 14.2733 3.5 14 3.5Z" fill="#292D32"/>
<path d="M8.31333 6.83331H2C1.72667 6.83331 1.5 6.60665 1.5 6.33331C1.5 6.05998 1.72667 5.83331 2 5.83331H8.31333C8.58667 5.83331 8.81333 6.05998 8.81333 6.33331C8.81333 6.60665 8.59333 6.83331 8.31333 6.83331Z" fill="#292D32"/>
<path d="M14 10.1667H2C1.72667 10.1667 1.5 9.94002 1.5 9.66669C1.5 9.39335 1.72667 9.16669 2 9.16669H14C14.2733 9.16669 14.5 9.39335 14.5 9.66669C14.5 9.94002 14.2733 10.1667 14 10.1667Z" fill="#292D32"/>
<path d="M8.31333 13.5H2C1.72667 13.5 1.5 13.2733 1.5 13C1.5 12.7267 1.72667 12.5 2 12.5H8.31333C8.58667 12.5 8.81333 12.7267 8.81333 13C8.81333 13.2733 8.59333 13.5 8.31333 13.5Z" fill="#292D32"/>
</svg>
