<svg width="20" height="20" viewBox="0 0 20 20" fill="none" xmlns="http://www.w3.org/2000/svg">
<path d="M10 13.75C10.6181 13.75 11.2223 13.5667 11.7362 13.2233C12.2501 12.88 12.6506 12.3919 12.8871 11.8209C13.1236 11.2499 13.1855 10.6215 13.065 10.0153C12.9444 9.40915 12.6467 8.85233 12.2097 8.41529C11.7727 7.97825 11.2158 7.68063 10.6097 7.56005C10.0035 7.43947 9.37513 7.50135 8.80411 7.73788C8.2331 7.9744 7.74504 8.37494 7.40166 8.88884C7.05828 9.40275 6.875 10.0069 6.875 10.625C6.875 11.4538 7.20424 12.2487 7.79029 12.8347C8.37634 13.4208 9.1712 13.75 10 13.75Z" fill="#7E95AE"/>
<path d="M2.97188 17.5H17.0344C17.49 17.4983 17.9263 17.3162 18.2479 16.9935C18.5694 16.6707 18.75 16.2337 18.75 15.7781V6.30625C18.75 5.95981 18.6124 5.62756 18.3674 5.38259C18.1224 5.13762 17.7902 5 17.4438 5H15.0938C15.0003 5.00007 14.9083 4.97699 14.826 4.93281C14.7436 4.88864 14.6735 4.82476 14.6219 4.74687L13.5312 3.125C13.4077 2.93459 13.2388 2.77782 13.0397 2.66874C12.8406 2.55966 12.6176 2.50168 12.3906 2.5H7.60938C7.38238 2.50168 7.15936 2.55966 6.96029 2.66874C6.76122 2.77782 6.59233 2.93459 6.46875 3.125L5.375 4.74687C5.32367 4.82432 5.25405 4.88793 5.17229 4.93208C5.09054 4.97623 4.99916 4.99955 4.90625 5H2.55625C2.20981 5 1.87756 5.13762 1.63259 5.38259C1.38762 5.62756 1.25 5.95981 1.25 6.30625V15.7781C1.25 16.2348 1.43141 16.6728 1.75433 16.9957C2.07724 17.3186 2.51521 17.5 2.97188 17.5ZM16.25 6.25C16.3736 6.25 16.4945 6.28666 16.5972 6.35533C16.7 6.42401 16.7801 6.52162 16.8274 6.63582C16.8747 6.75003 16.8871 6.87569 16.863 6.99693C16.8389 7.11817 16.7794 7.22953 16.6919 7.31694C16.6045 7.40435 16.4932 7.46388 16.3719 7.48799C16.2507 7.51211 16.125 7.49973 16.0108 7.45243C15.8966 7.40512 15.799 7.32501 15.7303 7.22223C15.6617 7.11945 15.625 6.99861 15.625 6.875C15.625 6.70924 15.6908 6.55027 15.8081 6.43306C15.9253 6.31585 16.0842 6.25 16.25 6.25ZM10 6.25C10.8653 6.25 11.7112 6.50659 12.4306 6.98732C13.1501 7.46805 13.7108 8.15133 14.042 8.95076C14.3731 9.75019 14.4597 10.6299 14.2909 11.4785C14.1221 12.3272 13.7054 13.1067 13.0936 13.7186C12.4817 14.3304 11.7022 14.7471 10.8535 14.9159C10.0049 15.0847 9.12519 14.9981 8.32576 14.667C7.52633 14.3358 6.84305 13.7751 6.36232 13.0556C5.88159 12.3362 5.625 11.4903 5.625 10.625C5.625 9.46468 6.08594 8.35188 6.90641 7.53141C7.72688 6.71094 8.83968 6.25 10 6.25Z" fill="#7E95AE"/>
<path d="M17.1305 3.75C17.2283 3.75 17.3221 3.71115 17.3912 3.642C17.4604 3.57284 17.4992 3.47905 17.4992 3.38125V3.19063C17.4984 3.00717 17.4249 2.83152 17.2949 2.70209C17.1649 2.57266 16.9889 2.5 16.8055 2.5H15.5086C15.4473 2.5 15.3884 2.52436 15.3451 2.56773C15.3017 2.6111 15.2773 2.66992 15.2773 2.73125C15.2773 3.00144 15.3847 3.26056 15.5757 3.45161C15.7668 3.64267 16.0259 3.75 16.2961 3.75H17.1305Z" fill="#7E95AE"/>
</svg>
