<svg width="12" height="12" viewBox="0 0 12 12" fill="none" xmlns="http://www.w3.org/2000/svg">
<path d="M10.9004 4.38096H9.60083V1.04763C9.60083 0.460196 9.04683 0 8.44865 0H3.45044C3.36406 0 3.30168 0.0363726 3.24691 0.097902C3.22351 0.112196 3.20073 0.127627 3.18414 0.147255L0.155811 3.72553C0.125619 3.76096 0.108228 3.80249 0.0984319 3.84553L0.0280659 3.92933C-0.0149275 3.98 0.0042744 4.04304 0.0042744 4.10837V10.9524C0.0042744 11.5202 0.437522 12 1.05131 12H8.44865C9.04683 12 9.60085 11.5398 9.60085 10.9524V8.19049H10.9004C11.5078 8.19049 12 7.72133 12 7.14284V5.42857C12 4.8501 11.5078 4.38096 10.9004 4.38096ZM11.4002 7.14284C11.4002 7.4059 11.1765 7.61904 10.9004 7.61904H7.10173C6.82564 7.61904 6.60193 7.4059 6.60193 7.14284V5.42857C6.60193 5.16551 6.82564 4.95237 7.10173 4.95237H10.9004C11.1765 4.95237 11.4002 5.16551 11.4002 5.42857V7.14284ZM3.20312 1.13618V3.05124C3.20312 3.31655 2.81185 3.61904 2.54356 3.61904H1.08928L2.10671 2.38112L3.20312 1.13618ZM9.00106 10.9524C9.00106 11.2238 8.71496 11.4286 8.44865 11.4286H1.05128C0.767598 11.4286 0.604063 11.2061 0.604063 10.9524V4.20933L0.619663 4.19049H2.54356C3.14714 4.19049 3.80291 3.63696 3.80291 3.05124V0.571431H8.44865C8.71494 0.571431 9.00104 0.776196 9.00104 1.04763V4.38096H7.10173C6.49435 4.38096 6.00212 4.85012 6.00212 5.42859V7.14286C6.00212 7.72135 6.49435 8.19051 7.10173 8.19051H9.00104L9.00106 10.9524Z" fill="#0093FD"/>
<path d="M8.21853 6.09714C8.17595 6.06094 8.12536 6.03543 8.06677 6.01961C8.00739 6.00363 7.92282 5.99561 7.81307 5.99561H7.44101C7.37723 5.99561 7.33065 6.00857 7.30147 6.03465C7.27206 6.06055 7.25747 6.10418 7.25747 6.16475V7.2158C7.25747 7.27047 7.27086 7.3118 7.29745 7.34C7.32405 7.36837 7.35924 7.38247 7.40301 7.38247C7.44461 7.38247 7.47918 7.368 7.50637 7.33961C7.53376 7.31104 7.54735 7.26933 7.54735 7.2139V6.82818H7.81305C7.99058 6.82818 8.12433 6.79198 8.21411 6.72057C8.30406 6.64877 8.34885 6.5438 8.34885 6.40477C8.34885 6.33963 8.33786 6.28133 8.31567 6.22916C8.29351 6.17714 8.26132 6.13277 8.21853 6.09714ZM8.019 6.53237C7.9948 6.56322 7.95981 6.58551 7.91385 6.59924C7.86806 6.61275 7.81109 6.6198 7.74272 6.6198H7.54739V6.20304H7.74272C7.87207 6.20304 7.95763 6.22324 7.99943 6.26343C8.03662 6.30133 8.055 6.35047 8.055 6.41028C8.055 6.46057 8.043 6.50116 8.019 6.53237Z" fill="#0093FD"/>
<path d="M9.59263 6.11943C9.53525 6.07143 9.47147 6.03906 9.40131 6.02153C9.33093 6.00439 9.24655 5.99565 9.1484 5.99565H8.77072C8.70815 5.99565 8.66277 6.00898 8.63496 6.03563C8.60677 6.06212 8.59298 6.10535 8.59298 6.16478V7.16478C8.59298 7.20876 8.59697 7.24441 8.60498 7.27202C8.61317 7.29982 8.63056 7.32098 8.65736 7.33639C8.68395 7.35163 8.72373 7.35906 8.77652 7.35906H9.15418C9.21996 7.35906 9.27913 7.35486 9.33132 7.34706C9.3839 7.33888 9.43268 7.32516 9.47845 7.30516C9.52383 7.28535 9.56582 7.25888 9.6042 7.22612C9.65318 7.18345 9.69317 7.13469 9.72435 7.08039C9.75555 7.02649 9.77875 6.96535 9.79373 6.89773C9.80853 6.83029 9.81612 6.75563 9.81612 6.67373C9.81614 6.42553 9.74158 6.24077 9.59263 6.11943ZM9.37693 7.07543C9.35534 7.09333 9.32994 7.10743 9.30076 7.11716C9.27137 7.12725 9.24317 7.13353 9.21578 7.1358C9.18841 7.13849 9.1506 7.13945 9.10262 7.13945H8.8829V6.21429H9.07424C9.1626 6.21429 9.23819 6.22324 9.30076 6.24155C9.36314 6.26 9.41572 6.30249 9.4583 6.36935C9.50107 6.43641 9.52227 6.53718 9.52227 6.67184C9.52227 6.86267 9.47368 6.99733 9.37693 7.07543Z" fill="#0093FD"/>
<path d="M10.9262 5.99561H10.2428C10.2018 5.99561 10.168 6.00153 10.1416 6.01255C10.1153 6.02418 10.0961 6.04245 10.0837 6.06761C10.0711 6.09255 10.0651 6.12531 10.0651 6.16475V7.2139C10.0651 7.27047 10.0787 7.31257 10.1055 7.34037C10.1327 7.36837 10.1676 7.38245 10.2106 7.38245C10.2528 7.38245 10.2874 7.36855 10.3144 7.34075C10.3416 7.31314 10.355 7.27122 10.355 7.21388V6.76494H10.8324C10.876 6.76494 10.9088 6.75561 10.9309 6.73694C10.9531 6.71828 10.9641 6.69314 10.9641 6.66151C10.9641 6.62988 10.9533 6.60455 10.9313 6.58551C10.9097 6.56704 10.8766 6.55731 10.8324 6.55731H10.3549V6.20877H10.9262C10.9721 6.20877 11.0065 6.19867 11.0289 6.17924C11.0515 6.15961 11.0627 6.1339 11.0627 6.10151C11.0627 6.0699 11.0515 6.04418 11.0289 6.02496C11.0065 6.00516 10.9721 5.99561 10.9262 5.99561Z" fill="#0093FD"/>
</svg>
