<svg width="21" height="20" viewBox="0 0 21 20" fill="none" xmlns="http://www.w3.org/2000/svg">
<path d="M18.6673 7.3016H16.5014V1.74605C16.5014 0.766994 15.578 0 14.5811 0H6.25073C6.10677 0 6.0028 0.0606209 5.91152 0.16317C5.87252 0.186993 5.83455 0.212712 5.8069 0.245425L0.759686 6.20922C0.709365 6.26827 0.680381 6.33748 0.664053 6.40922L0.546776 6.54889C0.475121 6.63333 0.507124 6.7384 0.507124 6.84729V18.254C0.507124 19.2003 1.2292 20 2.25218 20H14.5811C15.578 20 16.5014 19.233 16.5014 18.254V13.6508H18.6673C19.6796 13.6508 20.5 12.8689 20.5 11.9047V9.04761C20.5 8.0835 19.6796 7.3016 18.6673 7.3016ZM19.5003 11.9047C19.5003 12.3432 19.1275 12.6984 18.6673 12.6984H12.3362C11.8761 12.6984 11.5032 12.3432 11.5032 11.9047V9.04761C11.5032 8.60918 11.8761 8.25395 12.3362 8.25395H18.6673C19.1275 8.25395 19.5003 8.60918 19.5003 9.04761V11.9047ZM5.83853 1.89363V5.08539C5.83853 5.52758 5.18642 6.03173 4.73927 6.03173H2.31546L4.01119 3.96853L5.83853 1.89363ZM15.5018 18.254C15.5018 18.7063 15.0249 19.0476 14.5811 19.0476H2.25214C1.77933 19.0476 1.50677 18.6768 1.50677 18.254V7.01556L1.53277 6.98415H4.73927C5.74523 6.98415 6.83818 6.0616 6.83818 5.08539V0.952386H14.5811C15.0249 0.952386 15.5017 1.29366 15.5017 1.74605V7.3016H12.3362C11.3239 7.3016 10.5035 8.08353 10.5035 9.04765V11.9048C10.5035 12.8689 11.3239 13.6509 12.3362 13.6509H15.5017L15.5018 18.254Z" fill="#3E5067"/>
<path d="M14.1976 10.1619C14.1266 10.1016 14.0423 10.0591 13.9446 10.0327C13.8457 10.006 13.7047 9.99268 13.5218 9.99268H12.9017C12.7954 9.99268 12.7178 10.0143 12.6691 10.0577C12.6201 10.1009 12.5958 10.1736 12.5958 10.2746V12.0263C12.5958 12.1175 12.6181 12.1863 12.6624 12.2333C12.7067 12.2806 12.7654 12.3041 12.8384 12.3041C12.9077 12.3041 12.9653 12.28 13.0106 12.2327C13.0563 12.1851 13.0789 12.1156 13.0789 12.0232V11.3803H13.5217C13.8176 11.3803 14.0406 11.32 14.1902 11.2009C14.3401 11.0813 14.4147 10.9063 14.4147 10.6746C14.4147 10.566 14.3964 10.4689 14.3595 10.3819C14.3225 10.2952 14.2689 10.2213 14.1976 10.1619ZM13.865 10.8873C13.8247 10.9387 13.7663 10.9759 13.6898 10.9987C13.6134 11.0212 13.5185 11.033 13.4045 11.033H13.079V10.3384H13.4045C13.6201 10.3384 13.7627 10.3721 13.8324 10.4391C13.8944 10.5022 13.925 10.5841 13.925 10.6838C13.925 10.7676 13.905 10.8353 13.865 10.8873Z" fill="#3E5067"/>
<path d="M16.4877 10.1991C16.3921 10.1191 16.2858 10.0651 16.1689 10.0359C16.0515 10.0073 15.9109 9.99275 15.7473 9.99275H15.1179C15.0136 9.99275 14.9379 10.015 14.8916 10.0594C14.8446 10.1035 14.8216 10.1756 14.8216 10.2746V11.9413C14.8216 12.0146 14.8283 12.074 14.8416 12.12C14.8553 12.1664 14.8843 12.2016 14.9289 12.2273C14.9732 12.2527 15.0395 12.2651 15.1275 12.2651H15.757C15.8666 12.2651 15.9652 12.2581 16.0522 12.2451C16.1398 12.2315 16.2211 12.2086 16.2974 12.1753C16.3731 12.1423 16.443 12.0981 16.507 12.0435C16.5886 11.9724 16.6553 11.8911 16.7073 11.8007C16.7593 11.7108 16.7979 11.6089 16.8229 11.4962C16.8475 11.3838 16.8602 11.2594 16.8602 11.1229C16.8602 10.7092 16.736 10.4013 16.4877 10.1991ZM16.1282 11.7924C16.0922 11.8222 16.0499 11.8457 16.0013 11.8619C15.9523 11.8788 15.9053 11.8892 15.8596 11.893C15.814 11.8975 15.751 11.8991 15.671 11.8991H15.3048V10.3572H15.6237C15.771 10.3572 15.897 10.3721 16.0013 10.4026C16.1052 10.4333 16.1929 10.5042 16.2638 10.6156C16.3351 10.7274 16.3704 10.8953 16.3704 11.1197C16.3704 11.4378 16.2895 11.6622 16.1282 11.7924Z" fill="#3E5067"/>
<path d="M18.7103 9.99268H17.5713C17.503 9.99268 17.4467 10.0026 17.4027 10.0209C17.3588 10.0403 17.3268 10.0708 17.3061 10.1127C17.2851 10.1542 17.2751 10.2089 17.2751 10.2746V12.0232C17.2751 12.1175 17.2978 12.1876 17.3424 12.234C17.3878 12.2806 17.4461 12.3041 17.5177 12.3041C17.588 12.3041 17.6457 12.2809 17.6906 12.2346C17.736 12.1886 17.7583 12.1187 17.7583 12.0231V11.2749H18.554C18.6266 11.2749 18.6813 11.2593 18.7182 11.2282C18.7552 11.1971 18.7736 11.1552 18.7736 11.1025C18.7736 11.0498 18.7556 11.0076 18.7189 10.9759C18.6829 10.9451 18.6276 10.9289 18.5539 10.9289H17.7582V10.3479H18.7103C18.7868 10.3479 18.8442 10.3311 18.8815 10.2987C18.9192 10.266 18.9378 10.2232 18.9378 10.1692C18.9378 10.1165 18.9192 10.0736 18.8815 10.0416C18.8442 10.0086 18.7869 9.99268 18.7103 9.99268Z" fill="#3E5067"/>
</svg>
