<svg width="16" height="17" viewBox="0 0 16 17" fill="none" xmlns="http://www.w3.org/2000/svg">
<mask id="path-1-inside-1_3548_30505" fill="white">
<path d="M4.83203 15.584L4.83203 11.334C4.83203 11.0436 4.60536 10.8027 4.33203 10.8027C4.0587 10.8027 3.83203 11.0436 3.83203 11.334L3.83203 15.584C3.83203 15.8744 4.0587 16.1152 4.33203 16.1152C4.60536 16.1152 4.83203 15.8744 4.83203 15.584Z"/>
</mask>
<path d="M4.83203 15.584L3.83203 15.584L3.83203 11.334L4.83203 11.334L5.83203 11.334L5.83203 15.584L4.83203 15.584ZM4.83203 11.334L3.83203 11.334C3.83203 11.5379 3.99683 11.8027 4.33203 11.8027L4.33203 10.8027L4.33203 9.80273C5.2139 9.80273 5.83203 10.5493 5.83203 11.334L4.83203 11.334ZM4.33203 10.8027L4.33203 11.8027C4.66723 11.8027 4.83203 11.5379 4.83203 11.334L3.83203 11.334L2.83203 11.334C2.83203 10.5493 3.45016 9.80273 4.33203 9.80273L4.33203 10.8027ZM3.83203 11.334L4.83203 11.334L4.83203 15.584L3.83203 15.584L2.83203 15.584L2.83203 11.334L3.83203 11.334ZM3.83203 15.584L4.83203 15.584C4.83203 15.3801 4.66723 15.1152 4.33203 15.1152L4.33203 16.1152L4.33203 17.1152C3.45016 17.1152 2.83203 16.3687 2.83203 15.584L3.83203 15.584ZM4.33203 16.1152L4.33203 15.1152C3.99683 15.1152 3.83203 15.3801 3.83203 15.584L4.83203 15.584L5.83203 15.584C5.83203 16.3687 5.2139 17.1152 4.33203 17.1152L4.33203 16.1152Z" fill="#3E5067" mask="url(#path-1-inside-1_3548_30505)"/>
<mask id="path-3-inside-2_3548_30505" fill="white">
<path d="M4.83203 4.24935L4.83203 1.41602C4.83203 1.1256 4.60536 0.884766 4.33203 0.884766C4.0587 0.884766 3.83203 1.1256 3.83203 1.41602L3.83203 4.24935C3.83203 4.53977 4.0587 4.7806 4.33203 4.7806C4.60536 4.7806 4.83203 4.53977 4.83203 4.24935Z"/>
</mask>
<path d="M4.83203 4.24935L3.83203 4.24935L3.83203 1.41602L4.83203 1.41602L5.83203 1.41602L5.83203 4.24935L4.83203 4.24935ZM4.83203 1.41602L3.83203 1.41602C3.83203 1.6199 3.99683 1.88477 4.33203 1.88477L4.33203 0.884766L4.33203 -0.115234C5.2139 -0.115234 5.83203 0.631293 5.83203 1.41602L4.83203 1.41602ZM4.33203 0.884766L4.33203 1.88477C4.66723 1.88477 4.83203 1.6199 4.83203 1.41602L3.83203 1.41602L2.83203 1.41602C2.83203 0.631293 3.45016 -0.115234 4.33203 -0.115234L4.33203 0.884766ZM3.83203 1.41602L4.83203 1.41602L4.83203 4.24935L3.83203 4.24935L2.83203 4.24935L2.83203 1.41602L3.83203 1.41602ZM3.83203 4.24935L4.83203 4.24935C4.83203 4.04546 4.66723 3.7806 4.33203 3.7806L4.33203 4.7806L4.33203 5.7806C3.45016 5.7806 2.83203 5.03407 2.83203 4.24935L3.83203 4.24935ZM4.33203 4.7806L4.33203 3.7806C3.99683 3.7806 3.83203 4.04546 3.83203 4.24935L4.83203 4.24935L5.83203 4.24935C5.83203 5.03407 5.2139 5.7806 4.33203 5.7806L4.33203 4.7806Z" fill="#3E5067" mask="url(#path-3-inside-2_3548_30505)"/>
<path d="M2.01172 6.83398C2.12944 5.62118 3.09894 4.63494 4.33301 4.63477C5.56721 4.63477 6.53654 5.6211 6.6543 6.83398C6.53646 5.54516 5.51387 4.57227 4.33301 4.57227C3.15227 4.57244 2.12952 5.54525 2.01172 6.83398ZM2.01172 7.33008C2.12895 8.61945 3.15187 9.59259 4.33301 9.59277C5.51426 9.59277 6.53703 8.61954 6.6543 7.33008C6.5371 8.54355 5.56765 9.53027 4.33301 9.53027C3.0985 9.5301 2.12888 8.54347 2.01172 7.33008Z" stroke="#3E5067"/>
<mask id="path-6-inside-3_3548_30505" fill="white">
<path d="M12.168 15.5833L12.168 12.75C12.168 12.4596 11.9413 12.2188 11.668 12.2188C11.3946 12.2188 11.168 12.4596 11.168 12.75L11.168 15.5833C11.168 15.8737 11.3946 16.1146 11.668 16.1146C11.9413 16.1146 12.168 15.8738 12.168 15.5833Z"/>
</mask>
<path d="M12.168 15.5833L11.168 15.5833L11.168 12.75L12.168 12.75L13.168 12.75L13.168 15.5833L12.168 15.5833ZM12.168 12.75L11.168 12.75C11.168 12.9539 11.3328 13.2188 11.668 13.2188L11.668 12.2188L11.668 11.2188C12.5498 11.2188 13.168 11.9653 13.168 12.75L12.168 12.75ZM11.668 12.2188L11.668 13.2188C12.0032 13.2188 12.168 12.9539 12.168 12.75L11.168 12.75L10.168 12.75C10.168 11.9653 10.7861 11.2187 11.668 11.2188L11.668 12.2188ZM11.168 12.75L12.168 12.75L12.168 15.5833L11.168 15.5833L10.168 15.5833L10.168 12.75L11.168 12.75ZM11.168 15.5833L12.168 15.5833C12.168 15.3794 12.0032 15.1146 11.668 15.1146L11.668 16.1146L11.668 17.1146C10.7861 17.1146 10.168 16.3681 10.168 15.5833L11.168 15.5833ZM11.668 16.1146L11.668 15.1146C11.3328 15.1146 11.168 15.3794 11.168 15.5833L12.168 15.5833L13.168 15.5833C13.168 16.3681 12.5498 17.1146 11.668 17.1146L11.668 16.1146Z" fill="#3E5067" mask="url(#path-6-inside-3_3548_30505)"/>
<mask id="path-8-inside-4_3548_30505" fill="white">
<path d="M12.168 5.66602L12.168 1.41602C12.168 1.1256 11.9413 0.884766 11.668 0.884766C11.3946 0.884766 11.168 1.1256 11.168 1.41602L11.168 5.66602C11.168 5.95643 11.3946 6.19727 11.668 6.19727C11.9413 6.19727 12.168 5.95643 12.168 5.66602Z"/>
</mask>
<path d="M12.168 5.66602L11.168 5.66602L11.168 1.41602L12.168 1.41602L13.168 1.41602L13.168 5.66602L12.168 5.66602ZM12.168 1.41602L11.168 1.41602C11.168 1.6199 11.3328 1.88477 11.668 1.88477L11.668 0.884766L11.668 -0.115234C12.5498 -0.115234 13.168 0.631293 13.168 1.41602L12.168 1.41602ZM11.668 0.884766L11.668 1.88477C12.0032 1.88477 12.168 1.6199 12.168 1.41602L11.168 1.41602L10.168 1.41602C10.168 0.631293 10.7861 -0.115234 11.668 -0.115234L11.668 0.884766ZM11.168 1.41602L12.168 1.41602L12.168 5.66602L11.168 5.66602L10.168 5.66602L10.168 1.41602L11.168 1.41602ZM11.168 5.66602L12.168 5.66602C12.168 5.46213 12.0032 5.19727 11.668 5.19727L11.668 6.19727L11.668 7.19727C10.7861 7.19727 10.168 6.45074 10.168 5.66602L11.168 5.66602ZM11.668 6.19727L11.668 5.19727C11.3328 5.19727 11.168 5.46213 11.168 5.66602L12.168 5.66602L13.168 5.66602C13.168 6.45074 12.5498 7.19727 11.668 7.19727L11.668 6.19727Z" fill="#3E5067" mask="url(#path-8-inside-4_3548_30505)"/>
<path d="M9.34375 9.66797C9.46147 8.45517 10.431 7.46892 11.665 7.46875C12.8992 7.46875 13.8686 8.45509 13.9863 9.66797C13.8685 8.37915 12.8459 7.40625 11.665 7.40625C10.4843 7.40643 9.46155 8.37924 9.34375 9.66797ZM9.34375 10.1641C9.46098 11.4534 10.4839 12.4266 11.665 12.4268C12.8463 12.4268 13.8691 11.4535 13.9863 10.1641C13.8691 11.3775 12.8997 12.3643 11.665 12.3643C10.4305 12.3641 9.46091 11.3775 9.34375 10.1641Z" stroke="#3E5067"/>
</svg>
