<svg width="25" height="24" viewBox="0 0 25 24" fill="none" xmlns="http://www.w3.org/2000/svg">
<path d="M15.5 22.75H9.5C4.07 22.75 1.75 20.43 1.75 15V9C1.75 3.57 4.07 1.25 9.5 1.25H15.5C20.93 1.25 23.25 3.57 23.25 9V15C23.25 20.43 20.93 22.75 15.5 22.75ZM9.5 2.75C4.89 2.75 3.25 4.39 3.25 9V15C3.25 19.61 4.89 21.25 9.5 21.25H15.5C20.11 21.25 21.75 19.61 21.75 15V9C21.75 4.39 20.11 2.75 15.5 2.75H9.5Z" fill="#3E5067"/>
<path d="M9.5 10.75C7.98 10.75 6.75 9.52 6.75 8C6.75 6.48 7.98 5.25 9.5 5.25C11.02 5.25 12.25 6.48 12.25 8C12.25 9.52 11.02 10.75 9.5 10.75ZM9.5 6.75C8.81 6.75 8.25 7.31 8.25 8C8.25 8.69 8.81 9.25 9.5 9.25C10.19 9.25 10.75 8.69 10.75 8C10.75 7.31 10.19 6.75 9.5 6.75Z" fill="#3E5067"/>
<path d="M3.1688 19.7C2.9288 19.7 2.6888 19.58 2.5488 19.37C2.3188 19.03 2.4088 18.56 2.7588 18.33L7.6888 15.02C8.7688 14.29 10.2588 14.38 11.2388 15.21L11.5688 15.5C12.0688 15.93 12.9188 15.93 13.4088 15.5L17.5688 11.93C18.6288 11.02 20.2988 11.02 21.3688 11.93L22.9988 13.33C23.3088 13.6 23.3488 14.07 23.0788 14.39C22.8088 14.7 22.3388 14.74 22.0188 14.47L20.3888 13.07C19.8888 12.64 19.0388 12.64 18.5388 13.07L14.3788 16.64C13.3188 17.55 11.6488 17.55 10.5788 16.64L10.2488 16.35C9.78879 15.96 9.0288 15.92 8.5188 16.27L3.5888 19.58C3.4588 19.66 3.3088 19.7 3.1688 19.7Z" fill="#3E5067"/>
</svg>
