<svg width="30" height="30" viewBox="0 0 30 30" fill="none" xmlns="http://www.w3.org/2000/svg">
<path d="M27.2509 10.9524H24.0021V2.61907C24.0021 1.15049 22.6171 0 21.1216 0H8.6261C8.41015 0 8.2542 0.0909314 8.11728 0.244755C8.05878 0.28049 8.00183 0.319069 7.96036 0.368137L0.389528 9.31382C0.314048 9.4024 0.270571 9.50623 0.24608 9.61382L0.0701647 9.82333C-0.0373189 9.95 0.010686 10.1076 0.010686 10.2709V27.3809C0.010686 28.8004 1.09381 30 2.62826 30H21.1216C22.6171 30 24.0021 28.8495 24.0021 27.3809V20.4762H27.251C28.7694 20.4762 30 19.3033 30 17.8571V13.5714C30 12.1252 28.7694 10.9524 27.2509 10.9524ZM28.5005 17.8571C28.5005 18.5148 27.9412 19.0476 27.2509 19.0476H17.7543C17.0641 19.0476 16.5048 18.5148 16.5048 17.8571V13.5714C16.5048 12.9138 17.0641 12.3809 17.7543 12.3809H27.2509C27.9412 12.3809 28.5005 12.9138 28.5005 13.5714V17.8571ZM8.0078 2.84044V7.62809C8.0078 8.29137 7.02964 9.0476 6.35891 9.0476H2.72319L5.26678 5.95279L8.0078 2.84044ZM22.5026 27.3809C22.5026 28.0595 21.7874 28.5714 21.1216 28.5714H2.62821C1.919 28.5714 1.51016 28.0152 1.51016 27.3809V10.5233L1.54916 10.4762H6.35891C7.86785 10.4762 9.50727 9.0924 9.50727 7.62809V1.42858H21.1216C21.7874 1.42858 22.5026 1.94049 22.5026 2.61907V10.9524H17.7543C16.2359 10.9524 15.0053 12.1253 15.0053 13.5715V17.8572C15.0053 19.3034 16.2359 20.4763 17.7543 20.4763H22.5026L22.5026 27.3809Z" fill="#3E5067"/>
<path d="M20.5463 15.2428C20.4399 15.1524 20.3134 15.0886 20.1669 15.049C20.0185 15.0091 19.8071 14.989 19.5327 14.989H18.6025C18.4431 14.989 18.3266 15.0214 18.2537 15.0866C18.1801 15.1514 18.1437 15.2604 18.1437 15.4119V18.0395C18.1437 18.1762 18.1772 18.2795 18.2436 18.35C18.3101 18.4209 18.3981 18.4562 18.5075 18.4562C18.6115 18.4562 18.698 18.42 18.7659 18.349C18.8344 18.2776 18.8684 18.1733 18.8684 18.0348V17.0704H19.5326C19.9764 17.0704 20.3108 16.98 20.5353 16.8014C20.7602 16.6219 20.8721 16.3595 20.8721 16.0119C20.8721 15.8491 20.8446 15.7033 20.7892 15.5729C20.7338 15.4428 20.6533 15.3319 20.5463 15.2428ZM20.0475 16.3309C19.987 16.408 19.8995 16.4638 19.7846 16.4981C19.6701 16.5319 19.5277 16.5495 19.3568 16.5495H18.8685V15.5076H19.3568C19.6802 15.5076 19.8941 15.5581 19.9986 15.6586C20.0915 15.7533 20.1375 15.8762 20.1375 16.0257C20.1375 16.1514 20.1075 16.2529 20.0475 16.3309Z" fill="#3E5067"/>
<path d="M23.9816 15.2986C23.8381 15.1786 23.6787 15.0976 23.5033 15.0538C23.3273 15.011 23.1164 14.9891 22.871 14.9891H21.9268C21.7704 14.9891 21.6569 15.0225 21.5874 15.0891C21.5169 15.1553 21.4825 15.2634 21.4825 15.412V17.912C21.4825 18.0219 21.4924 18.111 21.5124 18.18C21.5329 18.2496 21.5764 18.3025 21.6434 18.341C21.7099 18.3791 21.8093 18.3976 21.9413 18.3976H22.8854C23.0499 18.3976 23.1978 18.3872 23.3283 18.3676C23.4598 18.3472 23.5817 18.3129 23.6961 18.2629C23.8096 18.2134 23.9145 18.1472 24.0105 18.0653C24.133 17.9586 24.2329 17.8367 24.3109 17.701C24.3889 17.5662 24.4469 17.4134 24.4843 17.2443C24.5213 17.0757 24.5403 16.8891 24.5403 16.6843C24.5404 16.0638 24.3539 15.6019 23.9816 15.2986ZM23.4423 17.6886C23.3883 17.7333 23.3249 17.7686 23.2519 17.7929C23.1784 17.8181 23.1079 17.8338 23.0394 17.8395C22.971 17.8462 22.8765 17.8486 22.7566 17.8486H22.2073V15.5357H22.6856C22.9065 15.5357 23.0955 15.5581 23.2519 15.6039C23.4078 15.65 23.5393 15.7562 23.6458 15.9234C23.7527 16.091 23.8057 16.3429 23.8057 16.6796C23.8057 17.1567 23.6842 17.4933 23.4423 17.6886Z" fill="#3E5067"/>
<path d="M27.3154 14.989H25.607C25.5046 14.989 25.4201 15.0038 25.3541 15.0314C25.2882 15.0604 25.2402 15.1061 25.2092 15.169C25.1777 15.2314 25.1627 15.3133 25.1627 15.4119V18.0348C25.1627 18.1762 25.1967 18.2814 25.2637 18.3509C25.3316 18.4209 25.4191 18.4561 25.5266 18.4561C25.6321 18.4561 25.7185 18.4214 25.786 18.3519C25.8539 18.2828 25.8875 18.178 25.8875 18.0347V16.9124H27.081C27.1899 16.9124 27.2719 16.889 27.3274 16.8424C27.3828 16.7957 27.4104 16.7328 27.4104 16.6538C27.4104 16.5747 27.3833 16.5114 27.3283 16.4638C27.2744 16.4176 27.1914 16.3933 27.0809 16.3933H25.8874V15.5219H27.3154C27.4303 15.5219 27.5162 15.4967 27.5723 15.4481C27.6288 15.399 27.6568 15.3348 27.6568 15.2538C27.6568 15.1748 27.6288 15.1104 27.5723 15.0624C27.5163 15.0129 27.4303 14.989 27.3154 14.989Z" fill="#3E5067"/>
</svg>
