<svg width="25" height="24" viewBox="0 0 25 24" fill="none" xmlns="http://www.w3.org/2000/svg">
<path d="M15.5 22.75H9.5C4.07 22.75 1.75 20.43 1.75 15V9C1.75 3.57 4.07 1.25 9.5 1.25H11.5C11.91 1.25 12.25 1.59 12.25 2C12.25 2.41 11.91 2.75 11.5 2.75H9.5C4.89 2.75 3.25 4.39 3.25 9V15C3.25 19.61 4.89 21.25 9.5 21.25H15.5C20.11 21.25 21.75 19.61 21.75 15V13C21.75 12.59 22.09 12.25 22.5 12.25C22.91 12.25 23.25 12.59 23.25 13V15C23.25 20.43 20.93 22.75 15.5 22.75Z" fill="white"/>
<path d="M8.99999 17.6896C8.38999 17.6896 7.82999 17.4696 7.41999 17.0696C6.92999 16.5796 6.71999 15.8696 6.82999 15.1196L7.25999 12.1096C7.33999 11.5296 7.71999 10.7796 8.12999 10.3696L16.01 2.48957C18 0.49957 20.02 0.49957 22.01 2.48957C23.1 3.57957 23.59 4.68957 23.49 5.79957C23.4 6.69957 22.92 7.57957 22.01 8.47957L14.13 16.3596C13.72 16.7696 12.97 17.1496 12.39 17.2296L9.37999 17.6596C9.24999 17.6896 9.11999 17.6896 8.99999 17.6896ZM17.07 3.54957L9.18999 11.4296C8.99999 11.6196 8.77999 12.0596 8.73999 12.3196L8.30999 15.3296C8.26999 15.6196 8.32999 15.8596 8.47999 16.0096C8.62999 16.1596 8.86999 16.2196 9.15999 16.1796L12.17 15.7496C12.43 15.7096 12.88 15.4896 13.06 15.2996L20.94 7.41957C21.59 6.76957 21.93 6.18957 21.98 5.64957C22.04 4.99957 21.7 4.30957 20.94 3.53957C19.34 1.93957 18.24 2.38957 17.07 3.54957Z" fill="white"/>
<path d="M20.35 9.83027C20.28 9.83027 20.21 9.82027 20.15 9.80027C17.52 9.06027 15.43 6.97027 14.69 4.34027C14.58 3.94027 14.81 3.53027 15.21 3.41027C15.61 3.30027 16.02 3.53027 16.13 3.93027C16.73 6.06027 18.42 7.75027 20.55 8.35027C20.95 8.46027 21.18 8.88027 21.07 9.28027C20.98 9.62027 20.68 9.83027 20.35 9.83027Z" fill="white"/>
</svg>
