<svg width="16" height="16" viewBox="0 0 16 16" fill="none" xmlns="http://www.w3.org/2000/svg">
<path opacity="0.8" d="M7.30373 1.59181C7.59411 0.652131 8.9242 0.652135 9.21458 1.59181L10.166 4.67063C10.2955 5.08964 10.6828 5.37539 11.1214 5.37539H14.3029C15.2594 5.37539 15.67 6.58937 14.9099 7.17004L12.2512 9.20116C11.9181 9.45557 11.7791 9.89066 11.9028 10.2911L12.8978 13.5108C13.1852 14.441 12.109 15.1918 11.3353 14.6007L8.86622 12.7145C8.50782 12.4407 8.01049 12.4407 7.65209 12.7145L5.18304 14.6007C4.40935 15.1918 3.3331 14.441 3.62056 13.5108L4.61552 10.2911C4.73925 9.89066 4.60018 9.45557 4.26716 9.20116L1.60839 7.17004C0.848276 6.58937 1.25892 5.37539 2.21545 5.37539H5.3969C5.83546 5.37539 6.22284 5.08964 6.35233 4.67063L7.30373 1.59181Z" stroke="#AAB7BF"/>
</svg>
