<svg width="13" height="12" viewBox="0 0 13 12" fill="none" xmlns="http://www.w3.org/2000/svg">
<path d="M5.54458 1.4695C5.83495 0.52982 7.16505 0.52982 7.45542 1.4695L8.05273 3.40242C8.18221 3.82142 8.56959 4.10718 9.00815 4.10718H11.0437C12.0002 4.10718 12.4109 5.32115 11.6508 5.90183L9.91905 7.22474C9.58602 7.47916 9.44696 7.91424 9.57069 8.31464L10.2115 10.3885C10.499 11.3187 9.42275 12.0694 8.64906 11.4784L7.10706 10.3004C6.74866 10.0266 6.25134 10.0266 5.89294 10.3004L4.35094 11.4784C3.57725 12.0694 2.501 11.3187 2.78845 10.3885L3.42931 8.31464C3.55304 7.91424 3.41398 7.47916 3.08095 7.22475L1.34923 5.90183C0.58912 5.32116 0.999761 4.10718 1.95629 4.10718H3.99185C4.43041 4.10718 4.81779 3.82143 4.94727 3.40242L5.54458 1.4695Z" fill="#FFBF6A"/>
</svg>
