<svg width="15" height="15" viewBox="0 0 15 15" fill="none" xmlns="http://www.w3.org/2000/svg">
<path opacity="0.8" d="M6.67416 1.59181C6.96453 0.652131 8.29462 0.652134 8.585 1.59181L9.53641 4.67063C9.66589 5.08964 10.0533 5.37539 10.4918 5.37539H13.6733C14.6298 5.37539 15.0405 6.58937 14.2803 7.17004L11.6216 9.20116C11.2885 9.45557 11.1495 9.89066 11.2732 10.2911L12.2682 13.5108C12.5556 14.441 11.4794 15.1918 10.7057 14.6007L8.23664 12.7145C7.87824 12.4407 7.38092 12.4407 7.02252 12.7145L4.55346 14.6007C3.77978 15.1918 2.70353 14.441 2.99098 13.5108L3.98594 10.2911C4.10967 9.89066 3.97061 9.45557 3.63758 9.20116L0.978812 7.17004C0.218698 6.58937 0.629338 5.37539 1.58587 5.37539H4.76732C5.20588 5.37539 5.59327 5.08964 5.72275 4.67063L6.67416 1.59181Z" fill="#E32636"/>
</svg>
