<svg width="15" height="15" viewBox="0 0 15 15" fill="none" xmlns="http://www.w3.org/2000/svg">
<path d="M13.1233 4.20703C13.1108 4.20703 13.0921 4.20703 13.0733 4.20703C9.76708 3.87578 6.46708 3.75078 3.19833 4.08203L1.92333 4.20703C1.66083 4.23203 1.42958 4.04453 1.40458 3.78203C1.37958 3.51953 1.56708 3.29453 1.82333 3.26953L3.09833 3.14453C6.42333 2.80703 9.79208 2.93828 13.1671 3.26953C13.4233 3.29453 13.6108 3.52578 13.5858 3.78203C13.5671 4.02578 13.3608 4.20703 13.1233 4.20703Z" fill="#3E5067"/>
<path d="M5.31296 3.575C5.28796 3.575 5.26296 3.575 5.23171 3.56875C4.98171 3.525 4.80671 3.28125 4.85046 3.03125L4.98796 2.2125C5.08796 1.6125 5.22546 0.78125 6.68171 0.78125H8.31921C9.78171 0.78125 9.91921 1.64375 10.013 2.21875L10.1505 3.03125C10.1942 3.2875 10.0192 3.53125 9.76921 3.56875C9.51296 3.6125 9.26921 3.4375 9.23171 3.1875L9.09421 2.375C9.00671 1.83125 8.98796 1.725 8.32546 1.725H6.68796C6.02546 1.725 6.01296 1.8125 5.91921 2.36875L5.77546 3.18125C5.73796 3.4125 5.53796 3.575 5.31296 3.575Z" fill="#3E5067"/>
<path d="M9.50747 14.2197H5.49497C3.31372 14.2197 3.22622 13.0135 3.15747 12.0385L2.75122 5.74471C2.73247 5.48846 2.93247 5.26346 3.18872 5.24471C3.45122 5.23221 3.66997 5.42596 3.68872 5.68221L4.09497 11.976C4.16372 12.926 4.18872 13.2822 5.49497 13.2822H9.50747C10.82 13.2822 10.845 12.926 10.9075 11.976L11.3137 5.68221C11.3325 5.42596 11.5575 5.23221 11.8137 5.24471C12.07 5.26346 12.27 5.48221 12.2512 5.74471L11.845 12.0385C11.7762 13.0135 11.6887 14.2197 9.50747 14.2197Z" fill="#3E5067"/>
<path d="M8.53828 10.7812H6.45703C6.20078 10.7812 5.98828 10.5688 5.98828 10.3125C5.98828 10.0563 6.20078 9.84375 6.45703 9.84375H8.53828C8.79453 9.84375 9.00703 10.0563 9.00703 10.3125C9.00703 10.5688 8.79453 10.7812 8.53828 10.7812Z" fill="#3E5067"/>
<path d="M9.0625 8.28125H5.9375C5.68125 8.28125 5.46875 8.06875 5.46875 7.8125C5.46875 7.55625 5.68125 7.34375 5.9375 7.34375H9.0625C9.31875 7.34375 9.53125 7.55625 9.53125 7.8125C9.53125 8.06875 9.31875 8.28125 9.0625 8.28125Z" fill="#3E5067"/>
</svg>
