<svg width="100" height="37" viewBox="0 0 100 37" fill="none" xmlns="http://www.w3.org/2000/svg">
<g clip-path="url(#clip0_340_2460)">
<path d="M18.2422 36.845V3.04329H35.6462C38.1587 2.9462 40.6715 3.22889 43.0997 3.88181C44.7896 4.40347 46.2497 5.48864 47.2364 6.95639C48.1951 8.49509 48.7324 10.2588 48.7945 12.0706C48.8567 13.8824 48.4414 15.6788 47.5905 17.2795C46.791 18.6476 45.6558 19.7892 44.2923 20.5964C43.1288 21.234 41.8706 21.6807 40.5655 21.9194C41.5187 22.2107 42.4278 22.6307 43.2674 23.1678C43.901 23.7176 44.4643 24.3434 44.9445 25.0312C45.4951 25.6826 45.9877 26.3809 46.4165 27.1182L51.4663 36.9196H39.6711L34.0809 26.5964C33.6432 25.6094 33.0092 24.7218 32.2176 23.9877C31.4615 23.4682 30.5634 23.1949 29.6461 23.2051H28.733V36.9196L18.2422 36.845ZM28.733 16.7392H33.1306C34.0686 16.6706 34.9981 16.5146 35.907 16.2733C36.5867 16.1475 37.1929 15.7678 37.6027 15.2112C38.0861 14.5433 38.3126 13.7235 38.2408 12.9022C38.1689 12.0808 37.8035 11.3129 37.2114 10.7391C36.0421 10.0339 34.6756 9.72659 33.3169 9.86328H28.733V16.7392Z" fill="#3F5067"/>
<path d="M73.25 3.04321H99.0765V10.3104H83.7408V16.2173H96.7845V23.0746H83.7408V36.8822H73.25V3.04321Z" fill="#3F5067"/>
<path d="M0 3.04321H10.5281V36.845H0.0558992L0 3.04321Z" fill="#E32636"/>
<path d="M60.4861 15.1739C58.5558 15.1712 56.6932 14.462 55.25 13.1801V36.845H65.7222V13.1801C64.2754 14.4561 62.4152 15.1644 60.4861 15.1739Z" fill="#3F5067"/>
<path d="M60.4861 13.385C64.1395 13.385 67.1011 10.4234 67.1011 6.77004C67.1011 3.11667 64.1395 0.155029 60.4861 0.155029C56.8327 0.155029 53.8711 3.11667 53.8711 6.77004C53.8711 10.4234 56.8327 13.385 60.4861 13.385Z" fill="#E32636"/>
</g>
<defs>
<clipPath id="clip0_340_2460">
<rect width="99.076" height="36.69" fill="white" transform="translate(0 0.155029)"/>
</clipPath>
</defs>
</svg>
