<svg width="36" height="36" viewBox="0 0 36 36" fill="none" xmlns="http://www.w3.org/2000/svg">
<rect width="36" height="36" rx="4" fill="#F7F8FB"/>
<path fill-rule="evenodd" clip-rule="evenodd" d="M11.1942 12.0773C11.3895 11.882 11.706 11.882 11.9013 12.0773L17.9987 18.1747L24.0968 12.0766C24.2921 11.8813 24.6087 11.8813 24.8039 12.0766C24.999 12.2719 24.9991 12.5885 24.8039 12.7837L18.7058 18.8818L23.9221 24.0981C24.1171 24.2934 24.1173 24.61 23.9221 24.8052C23.7269 25.0002 23.4102 25.0001 23.215 24.8052L17.9987 19.5889L12.7831 24.8045C12.5879 24.9994 12.2712 24.9995 12.076 24.8045C11.8808 24.6094 11.881 24.2927 12.076 24.0974L17.2916 18.8818L11.1942 12.7844C10.999 12.5892 10.9991 12.2726 11.1942 12.0773Z" fill="#3E5067"/>
</svg>
