<svg width="18" height="18" viewBox="0 0 18 18" fill="none" xmlns="http://www.w3.org/2000/svg">
<path d="M9.08937 10.1469C9.07437 10.1469 9.05188 10.1469 9.03688 10.1469C9.01438 10.1469 8.98437 10.1469 8.96187 10.1469C7.25937 10.0944 5.98438 8.76688 5.98438 7.13188C5.98438 5.46688 7.34188 4.10938 9.00688 4.10938C10.6719 4.10938 12.0294 5.46688 12.0294 7.13188C12.0219 8.77438 10.7394 10.0944 9.11187 10.1469C9.09687 10.1469 9.09687 10.1469 9.08937 10.1469ZM8.99937 5.22687C7.94938 5.22687 7.10188 6.08187 7.10188 7.12437C7.10188 8.15187 7.90437 8.98437 8.92437 9.02187C8.94687 9.01437 9.02188 9.01437 9.09688 9.02187C10.1019 8.96937 10.8894 8.14437 10.8969 7.12437C10.8969 6.08187 10.0494 5.22687 8.99937 5.22687Z" fill="#131D2A"/>
<path d="M9.00061 17.0627C6.98311 17.0627 5.05561 16.3127 3.56311 14.9477C3.42811 14.8277 3.36811 14.6477 3.38311 14.4752C3.48061 13.5827 4.03561 12.7502 4.95811 12.1352C7.19311 10.6502 10.8156 10.6502 13.0431 12.1352C13.9656 12.7577 14.5206 13.5827 14.6181 14.4752C14.6406 14.6552 14.5731 14.8277 14.4381 14.9477C12.9456 16.3127 11.0181 17.0627 9.00061 17.0627ZM4.56061 14.3252C5.80561 15.3677 7.37311 15.9377 9.00061 15.9377C10.6281 15.9377 12.1956 15.3677 13.4406 14.3252C13.3056 13.8677 12.9456 13.4252 12.4131 13.0652C10.5681 11.8352 7.44061 11.8352 5.58061 13.0652C5.04811 13.4252 4.69561 13.8677 4.56061 14.3252Z" fill="#131D2A"/>
<path d="M9 17.0625C4.5525 17.0625 0.9375 13.4475 0.9375 9C0.9375 4.5525 4.5525 0.9375 9 0.9375C13.4475 0.9375 17.0625 4.5525 17.0625 9C17.0625 13.4475 13.4475 17.0625 9 17.0625ZM9 2.0625C5.175 2.0625 2.0625 5.175 2.0625 9C2.0625 12.825 5.175 15.9375 9 15.9375C12.825 15.9375 15.9375 12.825 15.9375 9C15.9375 5.175 12.825 2.0625 9 2.0625Z" fill="#131D2A"/>
</svg>
