<svg width="18" height="18" viewBox="0 0 18 18" fill="none" xmlns="http://www.w3.org/2000/svg">
<path d="M9 9.97563C8.9025 9.97563 8.805 9.95315 8.715 9.90065L2.09251 6.06816C1.82251 5.91066 1.7325 5.56564 1.89 5.29564C2.0475 5.02564 2.385 4.93562 2.6625 5.09312L9 8.76063L15.3 5.11564C15.57 4.95814 15.915 5.05566 16.0725 5.31816C16.23 5.58816 16.1325 5.93313 15.87 6.09063L9.29252 9.90065C9.19502 9.94565 9.0975 9.97563 9 9.97563Z" fill="#131D2A"/>
<path d="M9 16.7693C8.6925 16.7693 8.4375 16.5143 8.4375 16.2068V9.4043C8.4375 9.0968 8.6925 8.8418 9 8.8418C9.3075 8.8418 9.5625 9.0968 9.5625 9.4043V16.2068C9.5625 16.5143 9.3075 16.7693 9 16.7693Z" fill="#131D2A"/>
<path d="M9.00046 17.0625C8.34046 17.0625 7.68796 16.92 7.17046 16.635L3.16546 14.4075C2.07796 13.8075 1.23047 12.36 1.23047 11.115V6.87748C1.23047 5.63248 2.07796 4.19252 3.16546 3.58502L7.17046 1.365C8.19796 0.795 9.80296 0.795 10.8305 1.365L14.8355 3.59248C15.923 4.19248 16.7704 5.63999 16.7704 6.88499V11.1225C16.7704 12.3675 15.923 13.8075 14.8355 14.415L10.8305 16.635C10.313 16.92 9.66046 17.0625 9.00046 17.0625ZM9.00046 2.06249C8.52796 2.06249 8.06296 2.16 7.71796 2.3475L3.71297 4.57498C2.99297 4.97998 2.35547 6.05249 2.35547 6.88499V11.1225C2.35547 11.9475 2.99297 13.0275 3.71297 13.4325L7.71796 15.66C8.40046 16.0425 9.60045 16.0425 10.283 15.66L14.2879 13.4325C15.0079 13.0275 15.6454 11.955 15.6454 11.1225V6.88499C15.6454 6.05999 15.0079 4.97998 14.2879 4.57498L10.283 2.3475C9.93795 2.16 9.47296 2.06249 9.00046 2.06249Z" fill="#131D2A"/>
<path d="M12.7509 10.4929C12.4434 10.4929 12.1884 10.2379 12.1884 9.9304V7.51542L5.34837 3.57042C5.07837 3.41292 4.98836 3.0679 5.14586 2.8054C5.30336 2.5354 5.64087 2.44539 5.91087 2.60289L13.0284 6.71292C13.2009 6.81042 13.3134 6.99789 13.3134 7.20039V9.94542C13.3134 10.2379 13.0584 10.4929 12.7509 10.4929Z" fill="#131D2A"/>
</svg>
