<svg width="18" height="18" viewBox="0 0 18 18" fill="none" xmlns="http://www.w3.org/2000/svg">
<path d="M12 17.0625H6C1.6875 17.0625 1.6875 14.775 1.6875 12.75V12C1.6875 10.3275 1.6875 8.4375 5.25 8.4375C6.1425 8.4375 6.4725 8.655 6.9375 9C6.96 9.0225 6.99 9.0375 7.0125 9.0675L7.7775 9.8775C8.4225 10.56 9.5925 10.56 10.2375 9.8775L11.0025 9.0675C11.025 9.045 11.0475 9.0225 11.0775 9C11.5425 8.6475 11.8725 8.4375 12.765 8.4375C16.3275 8.4375 16.3275 10.3275 16.3275 12V12.75C16.3125 15.615 14.865 17.0625 12 17.0625ZM5.25 9.5625C2.8125 9.5625 2.8125 10.3275 2.8125 12V12.75C2.8125 14.805 2.8125 15.9375 6 15.9375H12C14.235 15.9375 15.1875 14.985 15.1875 12.75V12C15.1875 10.3275 15.1875 9.5625 12.75 9.5625C12.21 9.5625 12.0975 9.63 11.775 9.87L11.0475 10.6425C10.5075 11.2125 9.78 11.5275 9 11.5275C8.22 11.5275 7.4925 11.2125 6.9525 10.6425L6.225 9.87C5.9025 9.63 5.79 9.5625 5.25 9.5625Z" fill="#131D2A"/>
<path d="M14.25 9.5625C13.9425 9.5625 13.6875 9.3075 13.6875 9V4.5C13.6875 2.8275 13.6875 2.0625 11.25 2.0625H6.75C4.3125 2.0625 4.3125 2.8275 4.3125 4.5V9C4.3125 9.3075 4.0575 9.5625 3.75 9.5625C3.4425 9.5625 3.1875 9.3075 3.1875 9V4.5C3.1875 2.8275 3.1875 0.9375 6.75 0.9375H11.25C14.8125 0.9375 14.8125 2.8275 14.8125 4.5V9C14.8125 9.3075 14.5575 9.5625 14.25 9.5625Z" fill="#131D2A"/>
<path d="M10.4096 7.48438H7.91211C7.60461 7.48438 7.34961 7.22938 7.34961 6.92188C7.34961 6.61437 7.60461 6.35938 7.91211 6.35938H10.4096C10.7171 6.35938 10.9721 6.61437 10.9721 6.92188C10.9721 7.22938 10.7246 7.48438 10.4096 7.48438Z" fill="#131D2A"/>
<path d="M11.0391 5.23438H7.28906C6.98156 5.23438 6.72656 4.97938 6.72656 4.67188C6.72656 4.36437 6.98156 4.10938 7.28906 4.10938H11.0391C11.3466 4.10938 11.6016 4.36437 11.6016 4.67188C11.6016 4.97938 11.3541 5.23438 11.0391 5.23438Z" fill="#131D2A"/>
</svg>
