<svg width="16" height="17" viewBox="0 0 16 17" fill="none" xmlns="http://www.w3.org/2000/svg">
<path d="M14.0004 4.98669C13.9871 4.98669 13.9671 4.98669 13.9471 4.98669C10.4204 4.63336 6.90043 4.50002 3.41377 4.85336L2.05377 4.98669C1.77377 5.01336 1.5271 4.81336 1.50043 4.53336C1.47377 4.25336 1.67377 4.01336 1.9471 3.98669L3.3071 3.85336C6.85377 3.49336 10.4471 3.63336 14.0471 3.98669C14.3204 4.01336 14.5204 4.26002 14.4938 4.53336C14.4738 4.79336 14.2538 4.98669 14.0004 4.98669Z" fill="#3E5067"/>
<path d="M5.66651 4.31337C5.63984 4.31337 5.61318 4.31337 5.57984 4.30671C5.31318 4.26004 5.12651 4.00004 5.17318 3.73337L5.31984 2.86004C5.42651 2.22004 5.57318 1.33337 7.12651 1.33337H8.87318C10.4332 1.33337 10.5798 2.25337 10.6798 2.86671L10.8265 3.73337C10.8732 4.00671 10.6865 4.26671 10.4198 4.30671C10.1465 4.35337 9.88651 4.16671 9.84651 3.90004L9.69984 3.03337C9.60651 2.45337 9.58651 2.34004 8.87984 2.34004H7.13318C6.42651 2.34004 6.41318 2.43337 6.31318 3.02671L6.15984 3.89337C6.11984 4.14004 5.90651 4.31337 5.66651 4.31337Z" fill="#3E5067"/>
<path d="M10.1396 15.6667H5.85961C3.53294 15.6667 3.43961 14.38 3.36627 13.34L2.93294 6.62672C2.91294 6.35338 3.12627 6.11338 3.39961 6.09338C3.67961 6.08005 3.91294 6.28672 3.93294 6.56005L4.36627 13.2734C4.43961 14.2867 4.46627 14.6667 5.85961 14.6667H10.1396C11.5396 14.6667 11.5663 14.2867 11.6329 13.2734L12.0663 6.56005C12.0863 6.28672 12.3263 6.08005 12.5996 6.09338C12.8729 6.11338 13.0863 6.34672 13.0663 6.62672L12.6329 13.34C12.5596 14.38 12.4663 15.6667 10.1396 15.6667Z" fill="#3E5067"/>
<path d="M9.10672 12H6.88672C6.61339 12 6.38672 11.7733 6.38672 11.5C6.38672 11.2267 6.61339 11 6.88672 11H9.10672C9.38005 11 9.60672 11.2267 9.60672 11.5C9.60672 11.7733 9.38005 12 9.10672 12Z" fill="#3E5067"/>
<path d="M9.66634 9.33337H6.33301C6.05967 9.33337 5.83301 9.10671 5.83301 8.83337C5.83301 8.56004 6.05967 8.33337 6.33301 8.33337H9.66634C9.93967 8.33337 10.1663 8.56004 10.1663 8.83337C10.1663 9.10671 9.93967 9.33337 9.66634 9.33337Z" fill="#3E5067"/>
</svg>
