<svg width="24" height="25" viewBox="0 0 24 25" fill="none" xmlns="http://www.w3.org/2000/svg">
<path d="M12.1205 14.03C12.1005 14.03 12.0705 14.03 12.0505 14.03C12.0205 14.03 11.9805 14.03 11.9505 14.03C9.68047 13.96 7.98047 12.19 7.98047 10.01C7.98047 7.78998 9.79047 5.97998 12.0105 5.97998C14.2305 5.97998 16.0405 7.78998 16.0405 10.01C16.0305 12.2 14.3205 13.96 12.1505 14.03C12.1305 14.03 12.1305 14.03 12.1205 14.03ZM12.0005 7.46998C10.6005 7.46998 9.47047 8.60998 9.47047 9.99998C9.47047 11.37 10.5405 12.48 11.9005 12.53C11.9305 12.52 12.0305 12.52 12.1305 12.53C13.4705 12.46 14.5205 11.36 14.5305 9.99998C14.5305 8.60998 13.4005 7.46998 12.0005 7.46998Z" fill="#131D2A"/>
<path d="M12.0008 23.2499C9.31081 23.2499 6.74081 22.2499 4.75081 20.4299C4.57081 20.2699 4.49081 20.0299 4.51081 19.7999C4.64081 18.6099 5.38081 17.4999 6.61081 16.6799C9.59081 14.6999 14.4208 14.6999 17.3908 16.6799C18.6208 17.5099 19.3608 18.6099 19.4908 19.7999C19.5208 20.0399 19.4308 20.2699 19.2508 20.4299C17.2608 22.2499 14.6908 23.2499 12.0008 23.2499ZM6.08081 19.5999C7.74081 20.9899 9.83081 21.7499 12.0008 21.7499C14.1708 21.7499 16.2608 20.9899 17.9208 19.5999C17.7408 18.9899 17.2608 18.3999 16.5508 17.9199C14.0908 16.2799 9.92081 16.2799 7.44081 17.9199C6.73081 18.3999 6.26081 18.9899 6.08081 19.5999Z" fill="#131D2A"/>
<path d="M12 23.25C6.07 23.25 1.25 18.43 1.25 12.5C1.25 6.57 6.07 1.75 12 1.75C17.93 1.75 22.75 6.57 22.75 12.5C22.75 18.43 17.93 23.25 12 23.25ZM12 3.25C6.9 3.25 2.75 7.4 2.75 12.5C2.75 17.6 6.9 21.75 12 21.75C17.1 21.75 21.25 17.6 21.25 12.5C21.25 7.4 17.1 3.25 12 3.25Z" fill="#131D2A"/>
</svg>
