<svg width="24" height="24" viewBox="0 0 24 24" fill="none" xmlns="http://www.w3.org/2000/svg">
<path fill-rule="evenodd" clip-rule="evenodd" d="M1.00269 2.25C1.00269 1.83579 1.33847 1.5 1.75269 1.5H3.65397C4.40292 1.5 5.06884 1.97659 5.31043 2.68551L5.77875 4.05975H18.2523C20.8757 4.05975 23.0023 6.1864 23.0023 8.80975V12.9522C23.0023 15.5755 20.8757 17.7022 18.2523 17.7022H10.7684C8.46893 17.7022 6.49968 16.0551 6.09319 13.7918L4.51381 4.99807L3.89061 3.16936C3.8561 3.06808 3.76096 3 3.65397 3H1.75269C1.33847 3 1.00269 2.66421 1.00269 2.25ZM6.13869 5.55975L7.56957 13.5267C7.84769 15.0752 9.19507 16.2022 10.7684 16.2022H18.2523C20.0472 16.2022 21.5023 14.7471 21.5023 12.9522V8.80975C21.5023 7.01483 20.0472 5.55975 18.2523 5.55975H6.13869Z" fill="#658092"/>
<path fill-rule="evenodd" clip-rule="evenodd" d="M11.3999 8.95001C11.8141 8.95001 12.1499 9.2858 12.1499 9.70001C12.1499 9.99549 12.2081 10.2881 12.3212 10.561C12.4342 10.834 12.6 11.0821 12.8089 11.291C13.0178 11.4999 13.2659 11.6657 13.5389 11.7787C13.8118 11.8918 14.1044 11.95 14.3999 11.95C14.6954 11.95 14.988 11.8918 15.2609 11.7787C15.5339 11.6657 15.782 11.4999 15.9909 11.291C16.1998 11.0821 16.3656 10.834 16.4786 10.5611C16.5917 10.2881 16.6499 9.99549 16.6499 9.70001C16.6499 9.2858 16.9857 8.95001 17.3999 8.95001C17.8141 8.95001 18.1499 9.2858 18.1499 9.70001C18.1499 10.1925 18.0529 10.6801 17.8645 11.1351C17.676 11.59 17.3998 12.0034 17.0516 12.3517C16.7033 12.6999 16.2899 12.9761 15.835 13.1646C15.38 13.353 14.8924 13.45 14.3999 13.45C13.9074 13.45 13.4198 13.353 12.9648 13.1646C12.5099 12.9761 12.0965 12.6999 11.7483 12.3517C11.4 12.0034 11.1238 11.59 10.9354 11.1351C10.7469 10.6801 10.6499 10.1925 10.6499 9.70001C10.6499 9.2858 10.9857 8.95001 11.3999 8.95001Z" fill="#658092"/>
<path fill-rule="evenodd" clip-rule="evenodd" d="M9.5 20.5C9.5 19.6716 10.1716 19 11 19H11.01C11.8384 19 12.51 19.6716 12.51 20.5C12.51 21.3284 11.8384 22 11.01 22H11C10.1716 22 9.5 21.3284 9.5 20.5Z" fill="#658092"/>
<path fill-rule="evenodd" clip-rule="evenodd" d="M17.5 20.5C17.5 19.6716 18.1716 19 19 19H19.01C19.8384 19 20.51 19.6716 20.51 20.5C20.51 21.3284 19.8384 22 19.01 22H19C18.1716 22 17.5 21.3284 17.5 20.5Z" fill="#658092"/>
</svg>
