<svg width="17" height="18" viewBox="0 0 17 18" fill="none" xmlns="http://www.w3.org/2000/svg">
<path d="M10.2005 16.8869H6.12013C2.42736 16.8869 0.849609 15.1649 0.849609 11.1343V6.68055C0.849609 2.64995 2.42736 0.927853 6.12013 0.927853H9.52046C9.79929 0.927853 10.0305 1.18023 10.0305 1.48457C10.0305 1.7889 9.79929 2.04128 9.52046 2.04128H6.12013C2.98502 2.04128 1.86971 3.25862 1.86971 6.68055V11.1343C1.86971 14.5562 2.98502 15.7735 6.12013 15.7735H10.2005C13.3356 15.7735 14.4509 14.5562 14.4509 11.1343V7.42283C14.4509 7.1185 14.6822 6.86612 14.961 6.86612C15.2398 6.86612 15.471 7.1185 15.471 7.42283V11.1343C15.471 15.1649 13.8933 16.8869 10.2005 16.8869Z" fill="#131D2A"/>
<path d="M14.9613 7.97955H12.2411C9.91523 7.97955 9.01074 6.99231 9.01074 4.4537V1.48457C9.01074 1.26188 9.13315 1.05404 9.32357 0.972393C9.51399 0.883319 9.73161 0.935278 9.88123 1.09116L15.3218 7.02943C15.4646 7.18531 15.5122 7.43026 15.4306 7.6381C15.349 7.84594 15.1653 7.97955 14.9613 7.97955ZM10.0308 2.8281V4.4537C10.0308 6.36879 10.4865 6.86612 12.2411 6.86612H13.7304L10.0308 2.8281Z" fill="#131D2A"/>
<path d="M8.84045 10.2064H4.76005C4.48122 10.2064 4.25 9.95402 4.25 9.64969C4.25 9.34535 4.48122 9.09298 4.76005 9.09298H8.84045C9.11928 9.09298 9.3505 9.34535 9.3505 9.64969C9.3505 9.95402 9.11928 10.2064 8.84045 10.2064Z" fill="#131D2A"/>
<path d="M7.48032 13.1755H4.76005C4.48122 13.1755 4.25 12.9232 4.25 12.6188C4.25 12.3145 4.48122 12.0621 4.76005 12.0621H7.48032C7.75914 12.0621 7.99037 12.3145 7.99037 12.6188C7.99037 12.9232 7.75914 13.1755 7.48032 13.1755Z" fill="#131D2A"/>
</svg>
