<svg width="29" height="30" viewBox="0 0 29 30" fill="none" xmlns="http://www.w3.org/2000/svg">
<path d="M28.5 15C28.5 22.732 22.232 29 14.5 29C6.76801 29 0.5 22.732 0.5 15C0.5 7.26801 6.76801 1 14.5 1C22.232 1 28.5 7.26801 28.5 15Z" fill="#658092" stroke="#658092"/>
<path d="M14.67 10.8839C14.1313 10.8839 13.5926 11.0916 13.1848 11.4995L8.16738 16.5169C7.94421 16.7401 7.94421 17.1095 8.16738 17.3326C8.39054 17.5558 8.75992 17.5558 8.98309 17.3326L14.0005 12.3152C14.3699 11.9458 14.9701 11.9458 15.3395 12.3152L20.3569 17.3326C20.5801 17.5558 20.9495 17.5558 21.1726 17.3326C21.3958 17.1095 21.3958 16.7401 21.1726 16.5169L16.1552 11.4995C15.7474 11.0916 15.2087 10.8839 14.67 10.8839Z" fill="white"/>
</svg>
