<svg width="29" height="30" viewBox="0 0 29 30" fill="none" xmlns="http://www.w3.org/2000/svg">
<path d="M28.5 15C28.5 22.732 22.232 29 14.5 29C6.76801 29 0.5 22.732 0.5 15C0.5 7.26801 6.76801 1 14.5 1C22.232 1 28.5 7.26801 28.5 15Z" fill="#AAB7BF" stroke="#F0F1F1"/>
<path d="M14.67 19.1161C14.1313 19.1161 13.5926 18.9084 13.1848 18.5005L8.16738 13.4831C7.94421 13.2599 7.94421 12.8905 8.16738 12.6674C8.39054 12.4442 8.75992 12.4442 8.98309 12.6674L14.0005 17.6848C14.3699 18.0542 14.9701 18.0542 15.3395 17.6848L20.3569 12.6674C20.5801 12.4442 20.9495 12.4442 21.1726 12.6674C21.3958 12.8905 21.3958 13.2599 21.1726 13.4831L16.1552 18.5005C15.7474 18.9084 15.2087 19.1161 14.67 19.1161Z" fill="white"/>
</svg>
