<svg width="16" height="17" viewBox="0 0 16 17" fill="none" xmlns="http://www.w3.org/2000/svg">
<path d="M7.99967 13.6667C6.25301 13.6667 4.83301 12.2467 4.83301 10.5C4.83301 8.75337 6.25301 7.33337 7.99967 7.33337C9.74634 7.33337 11.1663 8.75337 11.1663 10.5C11.1663 12.2467 9.74634 13.6667 7.99967 13.6667ZM7.99967 8.33337C6.80634 8.33337 5.83301 9.30671 5.83301 10.5C5.83301 11.6934 6.80634 12.6667 7.99967 12.6667C9.19301 12.6667 10.1663 11.6934 10.1663 10.5C10.1663 9.30671 9.19301 8.33337 7.99967 8.33337Z" fill="#E32636"/>
<path d="M7.62691 11.5267C7.41358 11.5267 7.20025 11.4467 7.04025 11.28L6.60691 10.8467C6.41358 10.6534 6.41358 10.3334 6.60691 10.14C6.80025 9.9467 7.12025 9.9467 7.31358 10.14L7.63358 10.46L8.70691 9.47336C8.90691 9.2867 9.22691 9.30003 9.41358 9.50003C9.60025 9.70003 9.58691 10.02 9.38691 10.2067L8.20025 11.3C8.03358 11.4534 7.82691 11.5267 7.62691 11.5267Z" fill="#E32636"/>
<path d="M9.99988 15.6667H5.99988C2.91988 15.6667 2.34655 14.2334 2.19988 12.84L1.69988 8.84671C1.62655 8.12671 1.59988 7.09337 2.29988 6.32004C2.89988 5.65337 3.89321 5.33337 5.33321 5.33337H10.6665C12.1132 5.33337 13.1065 5.66004 13.6999 6.32004C14.3932 7.09337 14.3732 8.12671 14.2999 8.83337L13.7999 12.84C13.6532 14.2334 13.0799 15.6667 9.99988 15.6667ZM5.33321 6.33337C4.20655 6.33337 3.43321 6.55337 3.03988 6.99337C2.71321 7.35337 2.60655 7.90671 2.69321 8.73337L3.19321 12.7267C3.30655 13.7934 3.59988 14.6734 5.99988 14.6734H9.99988C12.3999 14.6734 12.6932 13.8 12.8065 12.74L13.3065 8.73337C13.3932 7.92004 13.2865 7.36671 12.9599 7.00004C12.5665 6.55337 11.7932 6.33337 10.6665 6.33337H5.33321Z" fill="#E32636"/>
<path d="M11 6.25337C10.7267 6.25337 10.5 6.0267 10.5 5.75337V4.83337C10.5 4.13337 10.2 3.45337 9.68 2.98004C9.15333 2.50004 8.46667 2.28004 7.75333 2.3467C6.55333 2.46004 5.5 3.6867 5.5 4.9667V5.61337C5.5 5.8867 5.27333 6.11337 5 6.11337C4.72667 6.11337 4.5 5.8867 4.5 5.61337V4.96004C4.5 3.1667 5.94667 1.51337 7.66 1.3467C8.66 1.25337 9.62 1.5667 10.3533 2.24004C11.08 2.90004 11.5 3.8467 11.5 4.83337V5.75337C11.5 6.0267 11.2733 6.25337 11 6.25337Z" fill="#E32636"/>
</svg>
