<svg width="13" height="13" viewBox="0 0 13 13" fill="none" xmlns="http://www.w3.org/2000/svg">
<path d="M6.30769 12.6154C2.83077 12.6154 0 9.78461 0 6.30769C0 2.83077 2.83077 0 6.30769 0C9.78461 0 12.6154 2.83077 12.6154 6.30769C12.6154 9.78461 9.78461 12.6154 6.30769 12.6154ZM6.30769 0.923076C3.33538 0.923076 0.923076 3.34154 0.923076 6.30769C0.923076 9.27384 3.33538 11.6923 6.30769 11.6923C9.27999 11.6923 11.6923 9.27384 11.6923 6.30769C11.6923 3.34154 9.27999 0.923076 6.30769 0.923076Z" fill="#89909D"/>
<path d="M12.1995 12.6155C12.0942 12.6155 11.9888 12.5766 11.9056 12.4935L10.7964 11.3844C10.6356 11.2236 10.6356 10.9574 10.7964 10.7966C10.9572 10.6358 11.2235 10.6358 11.3843 10.7966L12.4935 11.9057C12.6543 12.0665 12.6543 12.3327 12.4935 12.4935C12.4103 12.5766 12.3049 12.6155 12.1995 12.6155Z" fill="#89909D"/>
</svg>
