<svg width="48" height="48" viewBox="0 0 48 48" fill="none" xmlns="http://www.w3.org/2000/svg">
<path d="M24.2409 27.06C24.2009 27.06 24.1409 27.06 24.1009 27.06C24.0409 27.06 23.9609 27.06 23.9009 27.06C19.3609 26.92 15.9609 23.38 15.9609 19.02C15.9609 14.58 19.5809 10.96 24.0209 10.96C28.4609 10.96 32.0809 14.58 32.0809 19.02C32.0609 23.4 28.6409 26.92 24.3009 27.06C24.2609 27.06 24.2609 27.06 24.2409 27.06ZM24.0009 13.94C21.2009 13.94 18.9409 16.22 18.9409 19C18.9409 21.74 21.0809 23.96 23.8009 24.06C23.8609 24.04 24.0609 24.04 24.2609 24.06C26.9409 23.92 29.0409 21.72 29.0609 19C29.0609 16.22 26.8009 13.94 24.0009 13.94Z" fill="#AAB7BF"/>
<path d="M24.0016 45.5C18.6216 45.5 13.4816 43.5 9.50162 39.86C9.14162 39.54 8.98163 39.06 9.02163 38.6C9.28163 36.22 10.7616 34 13.2216 32.36C19.1816 28.4 28.8416 28.4 34.7816 32.36C37.2416 34.02 38.7216 36.22 38.9816 38.6C39.0416 39.08 38.8616 39.54 38.5016 39.86C34.5216 43.5 29.3816 45.5 24.0016 45.5ZM12.1616 38.2C15.4816 40.98 19.6616 42.5 24.0016 42.5C28.3416 42.5 32.5216 40.98 35.8416 38.2C35.4816 36.98 34.5216 35.8 33.1016 34.84C28.1816 31.56 19.8416 31.56 14.8816 34.84C13.4616 35.8 12.5216 36.98 12.1616 38.2Z" fill="#AAB7BF"/>
<path d="M24 45.5C12.14 45.5 2.5 35.86 2.5 24C2.5 12.14 12.14 2.5 24 2.5C35.86 2.5 45.5 12.14 45.5 24C45.5 35.86 35.86 45.5 24 45.5ZM24 5.5C13.8 5.5 5.5 13.8 5.5 24C5.5 34.2 13.8 42.5 24 42.5C34.2 42.5 42.5 34.2 42.5 24C42.5 13.8 34.2 5.5 24 5.5Z" fill="#AAB7BF"/>
</svg>
