<svg width="40" height="40" viewBox="0 0 40 40" fill="none" xmlns="http://www.w3.org/2000/svg">
<path d="M20.0035 22.1666C19.7868 22.1666 19.5701 22.1167 19.3701 22L4.6535 13.4834C4.0535 13.1334 3.85346 12.3667 4.20346 11.7667C4.55346 11.1667 5.30346 10.9666 5.92013 11.3166L20.0035 19.4666L34.0035 11.3667C34.6035 11.0167 35.3701 11.2334 35.7201 11.8167C36.0701 12.4167 35.8535 13.1833 35.2702 13.5333L20.6535 22C20.4368 22.1 20.2201 22.1666 20.0035 22.1666Z" fill="#AAB7BF"/>
<path d="M20 37.2667C19.3167 37.2667 18.75 36.7 18.75 36.0167V20.9C18.75 20.2167 19.3167 19.65 20 19.65C20.6833 19.65 21.25 20.2167 21.25 20.9V36.0167C21.25 36.7 20.6833 37.2667 20 37.2667Z" fill="#AAB7BF"/>
<path d="M20.001 37.9167C18.5344 37.9167 17.0843 37.6 15.9343 36.9667L7.03435 32.0167C4.61769 30.6834 2.73438 27.4667 2.73438 24.7V15.2833C2.73438 12.5167 4.61769 9.31674 7.03435 7.96674L15.9343 3.03337C18.2177 1.76671 21.7844 1.76671 24.0677 3.03337L32.9677 7.98333C35.3843 9.31666 37.2677 12.5333 37.2677 15.3V24.7167C37.2677 27.4834 35.3843 30.6833 32.9677 32.0333L24.0677 36.9667C22.9177 37.6 21.4677 37.9167 20.001 37.9167ZM20.001 4.58336C18.951 4.58336 17.9177 4.80004 17.151 5.2167L8.25104 10.1667C6.65104 11.0667 5.23438 13.45 5.23438 15.3V24.7167C5.23438 26.5501 6.65104 28.95 8.25104 29.85L17.151 34.8C18.6677 35.65 21.3343 35.65 22.851 34.8L31.751 29.85C33.351 28.95 34.7677 26.5667 34.7677 24.7167V15.3C34.7677 13.4667 33.351 11.0667 31.751 10.1667L22.851 5.2167C22.0843 4.80004 21.051 4.58336 20.001 4.58336Z" fill="#AAB7BF"/>
<path d="M28.3301 23.3168C27.6467 23.3168 27.0801 22.7501 27.0801 22.0668V16.7002L11.8801 7.93348C11.2801 7.58348 11.08 6.81679 11.43 6.23345C11.78 5.63345 12.5301 5.43342 13.1301 5.78342L28.9467 14.9168C29.33 15.1335 29.5801 15.5501 29.5801 16.0001V22.1002C29.5801 22.7502 29.0134 23.3168 28.3301 23.3168Z" fill="#AAB7BF"/>
</svg>
