<svg width="40" height="40" viewBox="0 0 40 40" fill="none" xmlns="http://www.w3.org/2000/svg">
<path d="M6.55052 27.7167C6.23385 27.7167 5.91719 27.6 5.66719 27.35C5.18385 26.8667 5.18385 26.0667 5.66719 25.5834L25.5839 5.6667C26.0672 5.18337 26.8672 5.18337 27.3505 5.6667C27.8339 6.15003 27.8339 6.95003 27.3505 7.43337L7.43385 27.3667C7.20052 27.6 6.86719 27.7167 6.55052 27.7167Z" fill="#AAB7BF"/>
<path d="M18.5036 31.7167C18.187 31.7167 17.8703 31.6 17.6203 31.35C17.137 30.8667 17.137 30.0667 17.6203 29.5833L19.6203 27.5833C20.1036 27.1 20.9036 27.1 21.387 27.5833C21.8703 28.0667 21.8703 28.8667 21.387 29.35L19.387 31.35C19.1536 31.5833 18.837 31.7167 18.5036 31.7167Z" fill="#AAB7BF"/>
<path d="M22.9802 27.2333C22.6635 27.2333 22.3469 27.1167 22.0969 26.8667C21.6135 26.3833 21.6135 25.5833 22.0969 25.1L26.0802 21.1167C26.5635 20.6333 27.3635 20.6333 27.8469 21.1167C28.3302 21.6 28.3302 22.4 27.8469 22.8833L23.8635 26.8667C23.6302 27.1 23.2969 27.2333 22.9802 27.2333Z" fill="#AAB7BF"/>
<path d="M18.5021 37.9166C16.8688 37.9166 15.2355 36.9166 13.2521 34.9333L5.0688 26.7499C1.08547 22.7666 1.10214 20.1999 5.1188 16.1833L16.1855 5.11661C20.2021 1.09994 22.7688 1.08327 26.7521 5.06661L34.9355 13.2499C38.9188 17.2333 38.9021 19.7999 34.8855 23.8166L23.8188 34.8833C21.8021 36.8999 20.1521 37.9166 18.5021 37.9166ZM21.5021 4.58327C20.6355 4.58327 19.5355 5.29994 17.9521 6.88327L6.88547 17.9499C5.30214 19.5333 4.58547 20.6333 4.58547 21.4833C4.58547 22.3499 5.25214 23.3999 6.83547 24.9833L15.0188 33.1666C16.6021 34.7499 17.6355 35.4166 18.5021 35.4166C18.5021 35.4166 18.5021 35.4166 18.5188 35.4166C19.3855 35.4166 20.4688 34.6999 22.0521 33.1166L33.1188 22.0499C34.7021 20.4666 35.4188 19.3666 35.4188 18.5166C35.4188 17.6499 34.7521 16.5999 33.1688 15.0166L24.9855 6.83327C23.4188 5.24994 22.3688 4.58327 21.5021 4.58327Z" fill="#AAB7BF"/>
<path d="M36.6693 37.9166H3.33594C2.6526 37.9166 2.08594 37.35 2.08594 36.6666C2.08594 35.9833 2.6526 35.4166 3.33594 35.4166H36.6693C37.3526 35.4166 37.9193 35.9833 37.9193 36.6666C37.9193 37.35 37.3526 37.9166 36.6693 37.9166Z" fill="#AAB7BF"/>
</svg>
