<svg width="21" height="20" viewBox="0 0 21 20" fill="none" xmlns="http://www.w3.org/2000/svg">
    <path d="M10.5 13.75C11.1181 13.75 11.7223 13.5667 12.2362 13.2233C12.7501 12.88 13.1506 12.3919 13.3871 11.8209C13.6236 11.2499 13.6855 10.6215 13.565 10.0153C13.4444 9.40915 13.1467 8.85233 12.7097 8.41529C12.2727 7.97825 11.7158 7.68063 11.1097 7.56005C10.5035 7.43947 9.87513 7.50135 9.30411 7.73788C8.7331 7.9744 8.24504 8.37494 7.90166 8.88884C7.55828 9.40275 7.375 10.0069 7.375 10.625C7.375 11.4538 7.70424 12.2487 8.29029 12.8347C8.87634 13.4208 9.6712 13.75 10.5 13.75Z" fill="#7E95AE"/>
    <path d="M3.47188 17.5H17.5344C17.99 17.4983 18.4263 17.3162 18.7479 16.9935C19.0694 16.6707 19.25 16.2337 19.25 15.7781V6.30625C19.25 5.95981 19.1124 5.62756 18.8674 5.38259C18.6224 5.13762 18.2902 5 17.9438 5H15.5938C15.5003 5.00007 15.4083 4.97699 15.326 4.93281C15.2436 4.88864 15.1735 4.82476 15.1219 4.74687L14.0312 3.125C13.9077 2.93459 13.7388 2.77782 13.5397 2.66874C13.3406 2.55966 13.1176 2.50168 12.8906 2.5H8.10938C7.88238 2.50168 7.65936 2.55966 7.46029 2.66874C7.26122 2.77782 7.09233 2.93459 6.96875 3.125L5.875 4.74687C5.82367 4.82432 5.75405 4.88793 5.67229 4.93208C5.59054 4.97623 5.49916 4.99955 5.40625 5H3.05625C2.70981 5 2.37756 5.13762 2.13259 5.38259C1.88762 5.62756 1.75 5.95981 1.75 6.30625V15.7781C1.75 16.2348 1.93141 16.6728 2.25433 16.9957C2.57724 17.3186 3.01521 17.5 3.47188 17.5ZM16.75 6.25C16.8736 6.25 16.9945 6.28666 17.0972 6.35533C17.2 6.42401 17.2801 6.52162 17.3274 6.63582C17.3747 6.75003 17.3871 6.87569 17.363 6.99693C17.3389 7.11817 17.2794 7.22953 17.1919 7.31694C17.1045 7.40435 16.9932 7.46388 16.8719 7.48799C16.7507 7.51211 16.625 7.49973 16.5108 7.45243C16.3966 7.40512 16.299 7.32501 16.2303 7.22223C16.1617 7.11945 16.125 6.99861 16.125 6.875C16.125 6.70924 16.1908 6.55027 16.3081 6.43306C16.4253 6.31585 16.5842 6.25 16.75 6.25ZM10.5 6.25C11.3653 6.25 12.2112 6.50659 12.9306 6.98732C13.6501 7.46805 14.2108 8.15133 14.542 8.95076C14.8731 9.75019 14.9597 10.6299 14.7909 11.4785C14.6221 12.3272 14.2054 13.1067 13.5936 13.7186C12.9817 14.3304 12.2022 14.7471 11.3535 14.9159C10.5049 15.0847 9.62519 14.9981 8.82576 14.667C8.02633 14.3358 7.34305 13.7751 6.86232 13.0556C6.38159 12.3362 6.125 11.4903 6.125 10.625C6.125 9.46468 6.58594 8.35188 7.40641 7.53141C8.22688 6.71094 9.33968 6.25 10.5 6.25Z" fill="#7E95AE"/>
    <path d="M17.6344 3.75C17.7322 3.75 17.826 3.71115 17.8951 3.642C17.9643 3.57284 18.0031 3.47905 18.0031 3.38125V3.19063C18.0023 3.00717 17.9288 2.83152 17.7988 2.70209C17.6688 2.57266 17.4928 2.5 17.3094 2.5H16.0125C15.9512 2.5 15.8924 2.52436 15.849 2.56773C15.8056 2.6111 15.7813 2.66992 15.7812 2.73125C15.7812 3.00144 15.8886 3.26056 16.0796 3.45161C16.2707 3.64267 16.5298 3.75 16.8 3.75H17.6344Z" fill="#7E95AE"/>
</svg>
