<svg width="120" height="120" viewBox="0 0 120 120" fill="none" xmlns="http://www.w3.org/2000/svg">
    <g clip-path="url(#clip0_1543_18862)">
        <path d="M20.0533 104.59H99.9424C101.24 104.59 102.515 104.253 103.644 103.612C104.772 102.972 105.715 102.049 106.38 100.935C107.045 99.8213 107.41 98.5538 107.439 97.2566C107.468 95.9593 107.16 94.6768 106.545 93.5344L66.6026 19.3547C63.769 14.0953 56.2268 14.0953 53.3932 19.3547L13.451 93.5344C12.8359 94.6768 12.5277 95.9593 12.5565 97.2566C12.5854 98.5538 12.9503 99.8213 13.6156 100.935C14.2808 102.049 15.2237 102.972 16.3521 103.612C17.4805 104.253 18.7558 104.59 20.0533 104.59Z" stroke="#FFBF6A" stroke-width="8" stroke-linecap="round" stroke-linejoin="round"/>
        <path d="M58.6572 45.7945L60.0025 74.3883L61.3454 45.8062C61.3537 45.6235 61.3247 45.441 61.2601 45.2699C61.1954 45.0988 61.0966 44.9426 60.9696 44.811C60.8426 44.6794 60.6901 44.5751 60.5213 44.5044C60.3526 44.4337 60.1713 44.3982 59.9884 44.4C59.8087 44.4017 59.6312 44.4395 59.4663 44.511C59.3014 44.5825 59.1526 44.6863 59.0285 44.8163C58.9044 44.9463 58.8076 45.0998 58.7438 45.2678C58.68 45.4358 58.6506 45.6149 58.6572 45.7945Z" stroke="#FFBF6A" stroke-width="8" stroke-linecap="round" stroke-linejoin="round"/>
        <path d="M60 92.9805C59.0976 92.9805 58.2155 92.7129 57.4652 92.2115C56.7149 91.7102 56.1301 90.9976 55.7848 90.164C55.4395 89.3303 55.3491 88.4129 55.5252 87.5279C55.7012 86.6428 56.1358 85.8299 56.7738 85.1918C57.4119 84.5537 58.2249 84.1192 59.1099 83.9431C59.9949 83.7671 60.9123 83.8574 61.746 84.2028C62.5797 84.5481 63.2922 85.1329 63.7936 85.8832C64.2949 86.6335 64.5625 87.5156 64.5625 88.418C64.5625 89.628 64.0818 90.7885 63.2262 91.6441C62.3705 92.4998 61.2101 92.9805 60 92.9805Z" fill="#FFD600" stroke="#FFBF6A" stroke-width="0.25"/>
    </g>
    <defs>
        <clipPath id="clip0_1543_18862">
            <rect width="120" height="120" fill="white"/>
        </clipPath>
    </defs>
</svg>
