<svg width="16" height="16" viewBox="0 0 16 16" fill="none" xmlns="http://www.w3.org/2000/svg">
<path d="M14.5338 5.84128H12.8011V1.39684C12.8011 0.613595 12.0624 0 11.2649 0H4.60058C4.48541 0 4.40224 0.0484967 4.32922 0.130536C4.29802 0.149595 4.26764 0.17017 4.24552 0.19634L0.207748 4.96737C0.167492 5.01461 0.144304 5.06999 0.131243 5.12737L0.0374212 5.23911C-0.0199034 5.30667 0.0056992 5.39072 0.0056992 5.47783V14.6032C0.0056992 15.3602 0.583363 16 1.40174 16H11.2649C12.0624 16 12.8011 15.3864 12.8011 14.6032V10.9207H14.5338C15.3437 10.9207 16 10.2951 16 9.52379V7.23809C16 6.4668 15.3437 5.84128 14.5338 5.84128ZM15.2003 9.52379C15.2003 9.87454 14.902 10.1587 14.5338 10.1587H9.46898C9.10085 10.1587 8.80257 9.87454 8.80257 9.52379V7.23809C8.80257 6.88735 9.10085 6.60316 9.46898 6.60316H14.5338C14.902 6.60316 15.2003 6.88735 15.2003 7.23809V9.52379ZM4.27082 1.5149V4.06831C4.27082 4.42207 3.74914 4.82539 3.39142 4.82539H1.45237L2.80895 3.17482L4.27082 1.5149ZM12.0014 14.6032C12.0014 14.9651 11.62 15.2381 11.2649 15.2381H1.40171C1.02346 15.2381 0.805417 14.9414 0.805417 14.6032V5.61244L0.826217 5.58732H3.39142C4.19618 5.58732 5.07054 4.84928 5.07054 4.06831V0.761909H11.2649C11.6199 0.761909 12.0014 1.03493 12.0014 1.39684V5.84128H9.46898C8.65913 5.84128 8.00282 6.46682 8.00282 7.23812V9.52382C8.00282 10.2951 8.65913 10.9207 9.46898 10.9207H12.0014L12.0014 14.6032Z" fill="#0093FD"/>
<path d="M10.958 8.12952C10.9013 8.08126 10.8338 8.04724 10.7557 8.02614C10.6765 8.00484 10.5638 7.99414 10.4174 7.99414H9.92134C9.8363 7.99414 9.7742 8.01143 9.73529 8.0462C9.69608 8.08073 9.67662 8.1389 9.67662 8.21966V9.62107C9.67662 9.69396 9.69449 9.74907 9.72994 9.78667C9.76539 9.8245 9.81232 9.8433 9.87068 9.8433C9.92614 9.8433 9.97224 9.824 10.0085 9.78614C10.045 9.74805 10.0631 9.69245 10.0631 9.61854V9.10424H10.4174C10.6541 9.10424 10.8324 9.05597 10.9521 8.96076C11.0721 8.86502 11.1318 8.72507 11.1318 8.53969C11.1318 8.45284 11.1171 8.37511 11.0876 8.30554C11.058 8.23618 11.0151 8.17702 10.958 8.12952ZM10.692 8.70983C10.6597 8.75096 10.6131 8.78068 10.5518 8.79898C10.4907 8.81699 10.4148 8.82641 10.3236 8.82641H10.0632V8.27072H10.3236C10.4961 8.27072 10.6102 8.29765 10.6659 8.35124C10.7155 8.40178 10.74 8.4673 10.74 8.54703C10.74 8.61409 10.724 8.66821 10.692 8.70983Z" fill="#0093FD"/>
<path d="M12.7902 8.15924C12.7137 8.09524 12.6286 8.05208 12.5351 8.02871C12.4412 8.00586 12.3287 7.9942 12.1979 7.9942H11.6943C11.6109 7.9942 11.5504 8.01197 11.5133 8.0475C11.4757 8.08282 11.4573 8.14047 11.4573 8.21971V9.55305C11.4573 9.61169 11.4626 9.65922 11.4733 9.69603C11.4842 9.7331 11.5074 9.76131 11.5431 9.78186C11.5786 9.80217 11.6316 9.81208 11.702 9.81208H12.2056C12.2933 9.81208 12.3722 9.80648 12.4418 9.79608C12.5119 9.78518 12.5769 9.76688 12.6379 9.74021C12.6984 9.7138 12.7544 9.67851 12.8056 9.63482C12.8709 9.57794 12.9242 9.51292 12.9658 9.44052C13.0074 9.36865 13.0383 9.28714 13.0583 9.19697C13.078 9.10706 13.0882 9.0075 13.0882 8.8983C13.0882 8.56737 12.9888 8.32102 12.7902 8.15924ZM12.5026 9.43391C12.4738 9.45778 12.4399 9.47658 12.401 9.48954C12.3618 9.50301 12.3242 9.51137 12.2877 9.51441C12.2512 9.51799 12.2008 9.51927 12.1368 9.51927H11.8439V8.28573H12.099C12.2168 8.28573 12.3176 8.29765 12.401 8.32207C12.4842 8.34667 12.5543 8.40332 12.6111 8.49247C12.6681 8.58188 12.6964 8.71624 12.6964 8.89579C12.6964 9.15022 12.6316 9.32978 12.5026 9.43391Z" fill="#0093FD"/>
<path d="M14.5682 7.99414H13.6571C13.6024 7.99414 13.5574 8.00204 13.5222 8.01673C13.487 8.03224 13.4614 8.0566 13.4449 8.09015C13.4281 8.1234 13.4201 8.16709 13.4201 8.21966V9.61854C13.4201 9.69396 13.4382 9.75009 13.474 9.78716C13.5102 9.8245 13.5569 9.84327 13.6142 9.84327C13.6704 9.84327 13.7165 9.82473 13.7525 9.78766C13.7888 9.75085 13.8067 9.69495 13.8067 9.61851V9.01992H14.4432C14.5013 9.01992 14.545 9.00748 14.5746 8.98259C14.6042 8.9577 14.6189 8.92418 14.6189 8.88201C14.6189 8.83984 14.6045 8.80607 14.5751 8.78068C14.5463 8.75605 14.5021 8.74309 14.4432 8.74309H13.8066V8.27835H14.5682C14.6295 8.27835 14.6753 8.26489 14.7052 8.23898C14.7353 8.21281 14.7503 8.17854 14.7503 8.13535C14.7503 8.0932 14.7353 8.0589 14.7052 8.03328C14.6754 8.00688 14.6295 7.99414 14.5682 7.99414Z" fill="#0093FD"/>
</svg>
