<svg width="20" height="21" viewBox="0 0 20 21" fill="none" xmlns="http://www.w3.org/2000/svg">
<path d="M4.61763 16.7666C4.1093 16.7666 3.6343 16.5916 3.29263 16.2666C2.8593 15.8583 2.65097 15.2416 2.72597 14.575L3.0343 11.875C3.09263 11.3666 3.40097 10.6916 3.7593 10.325L10.601 3.08329C12.3093 1.27496 14.0926 1.22496 15.901 2.93329C17.7093 4.64163 17.7593 6.42496 16.051 8.23329L9.2093 15.475C8.8593 15.85 8.2093 16.2 7.70096 16.2833L5.01763 16.7416C4.87597 16.75 4.75097 16.7666 4.61763 16.7666ZM13.276 2.92496C12.6343 2.92496 12.076 3.32496 11.5093 3.92496L4.66763 11.175C4.50097 11.35 4.3093 11.7666 4.27597 12.0083L3.96763 14.7083C3.9343 14.9833 4.00097 15.2083 4.15097 15.35C4.30097 15.4916 4.52597 15.5416 4.80097 15.5L7.4843 15.0416C7.72597 15 8.12597 14.7833 8.29263 14.6083L15.1343 7.36663C16.1676 6.26663 16.5426 5.24996 15.0343 3.83329C14.3676 3.19163 13.7926 2.92496 13.276 2.92496Z" fill="#E32636"/>
<path d="M14.4497 9.62504C14.433 9.62504 14.408 9.62504 14.3914 9.62504C11.7914 9.3667 9.69971 7.3917 9.29971 4.80837C9.24971 4.4667 9.48305 4.15004 9.82471 4.0917C10.1664 4.0417 10.483 4.27504 10.5414 4.6167C10.858 6.63337 12.4914 8.18337 14.5247 8.38337C14.8664 8.4167 15.1164 8.72504 15.083 9.0667C15.0414 9.38337 14.7664 9.62504 14.4497 9.62504Z" fill="#E32636"/>
</svg>
