<svg width="15" height="15" viewBox="0 0 15 15" fill="none" xmlns="http://www.w3.org/2000/svg">
<rect x="0.5" y="0.5" width="14" height="14" rx="7" stroke="#658092"/>
<path d="M6.69194 9.54545V9.49432C6.69762 8.9517 6.75444 8.51989 6.86239 8.19886C6.97035 7.87784 7.12376 7.6179 7.32262 7.41903C7.52148 7.22017 7.76012 7.03693 8.03853 6.86932C8.20614 6.76705 8.35671 6.64631 8.49023 6.5071C8.62376 6.36506 8.72887 6.2017 8.80558 6.01705C8.88512 5.83239 8.92489 5.62784 8.92489 5.40341C8.92489 5.125 8.85955 4.88352 8.72887 4.67898C8.59819 4.47443 8.42347 4.31676 8.20472 4.20597C7.98597 4.09517 7.74308 4.03977 7.47603 4.03977C7.24308 4.03977 7.01864 4.08807 6.80273 4.18466C6.58683 4.28125 6.40643 4.43324 6.26154 4.64062C6.11665 4.84801 6.03285 5.11932 6.01012 5.45455H4.93626C4.95898 4.97159 5.08398 4.55824 5.31126 4.21449C5.54137 3.87074 5.84393 3.60795 6.21893 3.42614C6.59677 3.24432 7.0158 3.15341 7.47603 3.15341C7.97603 3.15341 8.41069 3.25284 8.78001 3.4517C9.15217 3.65057 9.4391 3.9233 9.6408 4.26989C9.84535 4.61648 9.94762 5.01136 9.94762 5.45455C9.94762 5.76705 9.89933 6.04972 9.80273 6.30256C9.70898 6.5554 9.57262 6.78125 9.39364 6.98011C9.21751 7.17898 9.00444 7.35511 8.75444 7.50852C8.50444 7.66477 8.30415 7.82955 8.15359 8.00284C8.00302 8.1733 7.89364 8.37642 7.82546 8.61222C7.75728 8.84801 7.72035 9.14205 7.71467 9.49432V9.54545H6.69194ZM7.23739 12.0682C7.02717 12.0682 6.84677 11.9929 6.6962 11.8423C6.54563 11.6918 6.47035 11.5114 6.47035 11.3011C6.47035 11.0909 6.54563 10.9105 6.6962 10.7599C6.84677 10.6094 7.02717 10.5341 7.23739 10.5341C7.44762 10.5341 7.62802 10.6094 7.77859 10.7599C7.92915 10.9105 8.00444 11.0909 8.00444 11.3011C8.00444 11.4403 7.96893 11.5682 7.8979 11.6847C7.82972 11.8011 7.73739 11.8949 7.62092 11.9659C7.50728 12.0341 7.37944 12.0682 7.23739 12.0682Z" fill="#658092"/>
</svg>
