<svg width="25" height="25" viewBox="0 0 25 25" fill="none" xmlns="http://www.w3.org/2000/svg">
<path fill-rule="evenodd" clip-rule="evenodd" d="M1.50391 2.75C1.50391 2.33579 1.83969 2 2.25391 2H4.15519C4.90414 2 5.57006 2.47659 5.81165 3.18551L6.27997 4.55975H18.7535C21.3769 4.55975 23.5035 6.6864 23.5035 9.30975V13.4522C23.5035 16.0755 21.3769 18.2022 18.7535 18.2022H11.2696C8.97015 18.2022 7.0009 16.5551 6.59441 14.2918L5.01503 5.49807L4.39183 3.66936C4.35732 3.56808 4.26218 3.5 4.15519 3.5H2.25391C1.83969 3.5 1.50391 3.16421 1.50391 2.75ZM6.63991 6.05975L8.07079 14.0267C8.34891 15.5752 9.69629 16.7022 11.2696 16.7022H18.7535C20.5485 16.7022 22.0035 15.2471 22.0035 13.4522V9.30975C22.0035 7.51483 20.5485 6.05975 18.7535 6.05975H6.63991Z" fill="#131D2A"/>
<path fill-rule="evenodd" clip-rule="evenodd" d="M11.9023 9.44995C12.3166 9.44995 12.6523 9.78574 12.6523 10.2C12.6523 10.4954 12.7105 10.788 12.8236 11.061C12.9367 11.334 13.1024 11.582 13.3114 11.7909C13.5203 11.9999 13.7683 12.1656 14.0413 12.2787C14.3143 12.3918 14.6069 12.45 14.9023 12.45C15.1978 12.45 15.4904 12.3918 15.7634 12.2787C16.0364 12.1656 16.2844 11.9999 16.4933 11.7909C16.7023 11.582 16.868 11.334 16.9811 11.061C17.0941 10.788 17.1523 10.4954 17.1523 10.2C17.1523 9.78574 17.4881 9.44995 17.9023 9.44995C18.3166 9.44995 18.6523 9.78574 18.6523 10.2C18.6523 10.6924 18.5553 11.18 18.3669 11.635C18.1784 12.09 17.9022 12.5034 17.554 12.8516C17.2058 13.1998 16.7924 13.476 16.3374 13.6645C15.8824 13.853 15.3948 13.95 14.9023 13.95C14.4099 13.95 13.9223 13.853 13.4673 13.6645C13.0123 13.476 12.5989 13.1998 12.2507 12.8516C11.9025 12.5034 11.6263 12.09 11.4378 11.635C11.2493 11.18 11.1523 10.6924 11.1523 10.2C11.1523 9.78574 11.4881 9.44995 11.9023 9.44995Z" fill="#131D2A"/>
<path fill-rule="evenodd" clip-rule="evenodd" d="M10 21C10 20.1716 10.6716 19.5 11.5 19.5H11.51C12.3384 19.5 13.01 20.1716 13.01 21C13.01 21.8284 12.3384 22.5 11.51 22.5H11.5C10.6716 22.5 10 21.8284 10 21Z" fill="#131D2A"/>
<path fill-rule="evenodd" clip-rule="evenodd" d="M18 21C18 20.1716 18.6716 19.5 19.5 19.5H19.51C20.3384 19.5 21.01 20.1716 21.01 21C21.01 21.8284 20.3384 22.5 19.51 22.5H19.5C18.6716 22.5 18 21.8284 18 21Z" fill="#131D2A"/>
</svg>
