<svg width="25" height="25" viewBox="0 0 25 25" fill="none" xmlns="http://www.w3.org/2000/svg">
<path d="M12.5 22.1499C12.19 22.1499 11.89 22.1099 11.64 22.0199C7.82 20.7099 1.75 16.0599 1.75 9.18985C1.75 5.68985 4.58 2.84985 8.06 2.84985C9.75 2.84985 11.33 3.50985 12.5 4.68985C13.67 3.50985 15.25 2.84985 16.94 2.84985C20.42 2.84985 23.25 5.69985 23.25 9.18985C23.25 16.0699 17.18 20.7099 13.36 22.0199C13.11 22.1099 12.81 22.1499 12.5 22.1499ZM8.06 4.34985C5.41 4.34985 3.25 6.51985 3.25 9.18985C3.25 16.0199 9.82 19.8199 12.13 20.6099C12.31 20.6699 12.7 20.6699 12.88 20.6099C15.18 19.8199 21.76 16.0299 21.76 9.18985C21.76 6.51985 19.6 4.34985 16.95 4.34985C15.43 4.34985 14.02 5.05985 13.11 6.28985C12.83 6.66985 12.19 6.66985 11.91 6.28985C10.98 5.04985 9.58 4.34985 8.06 4.34985Z" fill="#131D2A"/>
</svg>
