<svg width="20" height="20" viewBox="0 0 20 20" fill="none" xmlns="http://www.w3.org/2000/svg">
<g clip-path="url(#clip0_3344_30455)">
<path d="M9.99935 2.08398C10.6897 2.08398 11.2493 2.64363 11.2493 3.33398C11.2493 4.02434 10.6897 4.58398 9.99935 4.58398H5.83268C5.60257 4.58398 5.41602 4.77053 5.41602 5.00065V15.0007C5.41602 15.2307 5.60257 15.4173 5.83268 15.4173H9.58268C10.273 15.4173 10.8327 15.977 10.8327 16.6673C10.8327 17.3577 10.273 17.9173 9.58268 17.9173H5.83268C4.22185 17.9173 2.91602 16.6115 2.91602 15.0007V5.00065C2.91602 3.38982 4.22185 2.08398 5.83268 2.08398H9.99935ZM15.0498 6.75974L17.4068 9.11673C17.895 9.6049 17.895 10.3964 17.4068 10.8846L15.0498 13.2416C14.5617 13.7297 13.7703 13.7297 13.2821 13.2416C12.7939 12.7534 12.7939 11.962 13.2821 11.4738L13.5052 11.2507H9.99935C9.30902 11.2507 8.74935 10.691 8.74935 10.0007C8.74935 9.31032 9.30902 8.75065 9.99935 8.75065H13.5052L13.2821 8.52748C12.7939 8.03936 12.7939 7.2479 13.2821 6.75974C13.7703 6.27159 14.5617 6.27159 15.0498 6.75974Z" fill="#131D2A"/>
</g>
<defs>
<clipPath id="clip0_3344_30455">
<rect width="20" height="20" fill="white"/>
</clipPath>
</defs>
</svg>
