<svg width="25" height="25" viewBox="0 0 25 25" fill="none" xmlns="http://www.w3.org/2000/svg">
<path d="M12.5013 13.8C12.3713 13.8 12.2413 13.77 12.1213 13.7L3.29132 8.59002C2.93132 8.38002 2.8113 7.91999 3.0213 7.55999C3.2313 7.19999 3.6813 7.07997 4.0513 7.28997L12.5013 12.18L20.9013 7.32C21.2613 7.11 21.7213 7.24002 21.9313 7.59002C22.1413 7.95002 22.0113 8.40999 21.6613 8.61999L12.8913 13.7C12.7613 13.76 12.6313 13.8 12.5013 13.8Z" fill="#131D2A"/>
<path d="M12.5 22.86C12.09 22.86 11.75 22.52 11.75 22.11V13.04C11.75 12.63 12.09 12.29 12.5 12.29C12.91 12.29 13.25 12.63 13.25 13.04V22.11C13.25 22.52 12.91 22.86 12.5 22.86Z" fill="#131D2A"/>
<path d="M12.5006 23.25C11.6206 23.25 10.7506 23.06 10.0606 22.68L4.72061 19.71C3.27061 18.91 2.14062 16.98 2.14062 15.32V9.66998C2.14062 8.00998 3.27061 6.09002 4.72061 5.28002L10.0606 2.32C11.4306 1.56 13.5706 1.56 14.9406 2.32L20.2806 5.28997C21.7306 6.08997 22.8606 8.01999 22.8606 9.67999V15.33C22.8606 16.99 21.7306 18.91 20.2806 19.72L14.9406 22.68C14.2506 23.06 13.3806 23.25 12.5006 23.25ZM12.5006 3.24999C11.8706 3.24999 11.2506 3.38 10.7906 3.63L5.45062 6.59997C4.49062 7.13997 3.64062 8.56999 3.64062 9.67999V15.33C3.64062 16.43 4.49062 17.87 5.45062 18.41L10.7906 21.38C11.7006 21.89 13.3006 21.89 14.2106 21.38L19.5506 18.41C20.5106 17.87 21.3606 16.44 21.3606 15.33V9.67999C21.3606 8.57999 20.5106 7.13997 19.5506 6.59997L14.2106 3.63C13.7506 3.38 13.1306 3.24999 12.5006 3.24999Z" fill="#131D2A"/>
<path d="M17.5012 14.49C17.0912 14.49 16.7512 14.15 16.7512 13.74V10.5201L7.63116 5.26007C7.27116 5.05007 7.15114 4.59005 7.36114 4.24005C7.57114 3.88005 8.02116 3.76003 8.38116 3.97003L17.8712 9.45007C18.1012 9.58007 18.2512 9.83003 18.2512 10.1V13.7601C18.2512 14.1501 17.9112 14.49 17.5012 14.49Z" fill="#131D2A"/>
</svg>
