<svg width="24" height="25" viewBox="0 0 24 25" fill="none" xmlns="http://www.w3.org/2000/svg">
<path d="M12.1187 13.28C12.0487 13.27 11.9587 13.27 11.8787 13.28C10.1187 13.22 8.71875 11.78 8.71875 10.01C8.71875 8.19998 10.1787 6.72998 11.9987 6.72998C13.8087 6.72998 15.2787 8.19998 15.2787 10.01C15.2687 11.78 13.8787 13.22 12.1187 13.28Z" stroke="#131D2A" stroke-width="1.5" stroke-linecap="round" stroke-linejoin="round"/>
<path d="M18.7417 19.8801C16.9617 21.5101 14.6017 22.5001 12.0017 22.5001C9.40172 22.5001 7.04172 21.5101 5.26172 19.8801C5.36172 18.9401 5.96172 18.0201 7.03172 17.3001C9.77172 15.4801 14.2517 15.4801 16.9717 17.3001C18.0417 18.0201 18.6417 18.9401 18.7417 19.8801Z" stroke="#131D2A" stroke-width="1.5" stroke-linecap="round" stroke-linejoin="round"/>
<path d="M12 22.5C17.5228 22.5 22 18.0228 22 12.5C22 6.97715 17.5228 2.5 12 2.5C6.47715 2.5 2 6.97715 2 12.5C2 18.0228 6.47715 22.5 12 22.5Z" stroke="#131D2A" stroke-width="1.5" stroke-linecap="round" stroke-linejoin="round"/>
</svg>
